<?xml version="1.0" encoding="utf-8"?>
<!-- Generator: Adobe Illustrator 16.2.1, SVG Export Plug-In . SVG Version: 6.00 Build 0)  -->
<!DOCTYPE svg PUBLIC "-//W3C//DTD SVG 1.1//EN" "http://www.w3.org/Graphics/SVG/1.1/DTD/svg11.dtd">
<svg version="1.1" id="btn-fb" xmlns="http://www.w3.org/2000/svg" xmlns:xlink="http://www.w3.org/1999/xlink" x="0px" y="0px"
	 width="256px" height="256px" viewBox="0 0 256 256" enable-background="new 0 0 256 256" xml:space="preserve">
<image display="none" overflow="visible" width="20" height="20" xlink:href="../../../../../../Downloads/fb.png"  transform="matrix(12.8 0 0 12.8 0 0)">
</image>
<path d="M241.033,199.892c0,11.756-4.144,21.777-12.527,30.161c-8.286,8.287-18.404,12.526-30.159,12.526l-53.427,3V155.58h30.064
	l4.433-33.147H144.92v-21.199c0-5.3,1.351-9.443,4.145-12.334c2.794-2.89,7.516-4.336,14.261-4.336l19.561-0.096V53.729
	c-9.444-0.868-18.308-1.349-26.594-1.349c-13.396,0-24.188,3.951-32.28,11.949c-8.096,7.902-12.143,19.079-12.143,33.437v24.571
	H78.626v33.147h33.147v89.998l-55.46-3c-11.756,0-21.777-4.143-30.16-12.526c-8.383-8.383-12.527-18.404-12.527-30.16V57.763
	c0-11.756,4.144-21.777,12.527-30.16c8.383-8.383,18.404-12.527,30.16-12.527h142.128c11.757,0,21.778,4.144,30.162,12.527
	c8.286,8.382,12.525,18.404,12.525,30.16v142.128H241.033z"/>
</svg>
