<?xml version="1.0" encoding="utf-8"?>
<!-- Generator: Adobe Illustrator 16.2.1, SVG Export Plug-In . SVG Version: 6.00 Build 0)  -->
<!DOCTYPE svg PUBLIC "-//W3C//DTD SVG 1.1//EN" "http://www.w3.org/Graphics/SVG/1.1/DTD/svg11.dtd">
<svg version="1.1" id="btn-youtube" xmlns="http://www.w3.org/2000/svg" xmlns:xlink="http://www.w3.org/1999/xlink" x="0px"
	 y="0px" width="256px" height="256px" viewBox="0 0 256 256" enable-background="new 0 0 256 256" xml:space="preserve">
<path d="M250.873,64.828c-2.951-11.023-11.634-19.707-22.658-22.653c-19.974-5.355-100.102-5.355-100.102-5.355
	s-80.124,0-100.104,5.355C16.985,45.121,8.302,53.805,5.356,64.828C0,84.809,0,126.5,0,126.5s0,41.69,5.355,61.67
	c2.946,11.023,11.629,19.707,22.653,22.654c19.98,5.355,100.104,5.355,100.104,5.355s80.127,0,100.102-5.355
	c11.024-2.947,19.708-11.631,22.658-22.654c5.353-19.979,5.353-61.67,5.353-61.67S256.227,84.809,250.873,64.828z M102.491,164.934
	V88.066l66.567,38.434L102.491,164.934z"/>
</svg>
