<svg xmlns="http://www.w3.org/2000/svg" xmlns:xlink="http://www.w3.org/1999/xlink" width="30" height="30" viewBox="0 0 30 30">
    <defs>
        <path id="q7n50jy7ea" d="M0 0H30V30H0z"/>
    </defs>
    <g fill="none" fill-rule="evenodd">
        <mask id="al2owbiudb" fill="#fff">
            <use xlink:href="#q7n50jy7ea"/>
        </mask>
        <path fill="#FFF" fill-rule="nonzero" d="M14.59 9.865c4.826 0 8.868 3.536 9.896 8.285.087-.005.176-.005.264 0 .282 0 .553 0 .814.019 5.827.406 5.309 9.254-.535 9.254H3.677c-4.255 0-4.432-6.494-.176-6.557h.114c.273 0 .545.015.817.044v-.358c0-5.903 4.551-10.687 10.159-10.687zm10.29-7.148c-1.384 1.36-1.81 3.421-1.079 5.219.732 1.797 2.477 2.975 4.418 2.98v.01c.307 0 .613-.03.914-.089-1.464 1.425-3.671 1.763-5.494.84-1.823-.922-2.859-2.9-2.578-4.923.28-2.024 1.815-3.646 3.82-4.037z" mask="url(#al2owbiudb)"/>
    </g>
</svg>
