<svg width="272" height="353" viewBox="0 0 272 353" fill="none" xmlns="http://www.w3.org/2000/svg">
<g clip-path="url(#clip0_5_9)">
<path fill-rule="evenodd" clip-rule="evenodd" d="M102.654 140.79C102.654 140.79 102.275 150.146 89.6617 153.265L122.704 207.269L155.745 153.265C143.524 150.24 142.78 141.37 142.753 140.817V95.6149C142.753 91.7941 139.617 88.6618 135.79 88.6618H109.63C105.791 88.6618 102.668 91.7941 102.668 95.6149V140.79H102.654Z" fill="#FFC5B0"/>
<path fill-rule="evenodd" clip-rule="evenodd" d="M62.3387 314.292C63.7447 308.082 65.2995 301.345 65.2995 301.345C63.5555 298.348 65.9214 296.484 65.9214 296.484L47.6835 240.104C54.7678 210.982 46.9264 179.322 44.1279 169.628C44.6011 169.25 45.0607 168.885 45.5339 168.534C56.7822 159.907 80.6983 154.102 81.0363 154.021C84.9569 153.143 88.472 152.387 91.1083 151.752C92.5684 151.415 93.0416 152.077 93.0416 152.077C97.9763 163.215 110.171 170.29 122.582 170.546C135.006 170.29 147.187 163.215 152.122 152.077C152.122 152.077 152.595 151.415 154.055 151.752C156.692 152.374 160.193 153.143 164.127 154.021C164.465 154.102 188.382 159.907 199.63 168.534C200.089 168.885 200.563 169.263 201.036 169.628C198.237 179.335 190.396 210.982 197.467 240.104L179.229 296.484C179.229 296.484 181.595 298.348 179.851 301.345C179.851 301.345 181.405 308.082 182.811 314.292H62.3387Z" fill="#262626"/>
<path fill-rule="evenodd" clip-rule="evenodd" d="M83.9429 153.373C86.6874 152.765 89.1344 152.225 91.0948 151.752C92.5549 151.415 93.0281 152.077 93.0281 152.077C97.9627 163.215 110.157 170.29 122.568 170.546C134.993 170.29 147.174 163.215 152.109 152.077C152.109 152.077 152.582 151.415 154.042 151.752C156.002 152.225 158.449 152.765 161.194 153.373L160.18 155.641C153.758 170.127 138.359 179.038 122.744 179.362H122.555H122.366C106.805 179.038 91.4328 170.168 84.9839 155.749L83.9159 153.359L83.9429 153.373Z" fill="#2B62E1"/>
<path fill-rule="evenodd" clip-rule="evenodd" d="M50.6308 226.549V226.63L50.6443 227.332C50.6443 227.575 50.6443 227.818 50.6578 228.061V228.142V228.817V228.992V229.586V229.762V230.518C50.6578 230.802 50.6578 231.085 50.6578 231.369V231.45V231.963C51.8475 232.651 53.4023 232.503 54.4162 231.477L63.9475 221.958L73.4788 231.477C74.6956 232.678 76.6559 232.678 77.8592 231.477L87.3904 221.958L96.9217 231.477C98.125 232.678 100.099 232.678 101.302 231.477L110.833 221.958L120.365 231.477C121.581 232.678 123.542 232.678 124.745 231.477L134.276 221.958L143.808 231.477C145.011 232.678 146.985 232.678 148.188 231.477L157.719 221.958L167.25 231.477C168.454 232.678 170.428 232.678 171.631 231.477L181.162 221.958L190.693 231.477C191.707 232.489 193.262 232.651 194.452 231.963V231.45V231.369C194.452 231.085 194.452 230.802 194.452 230.518V229.748V229.667V228.992V228.911V228.155V228.074V227.993V227.912V227.831V227.494V227.413V227.332L194.465 226.657V226.576L183.325 215.451C182.122 214.249 180.148 214.249 178.945 215.451L169.414 224.969L159.882 215.451C158.679 214.249 156.705 214.249 155.502 215.451L145.971 224.969L136.439 215.451C135.236 214.249 133.262 214.249 132.059 215.451L122.528 224.969L112.996 215.451C111.793 214.249 109.819 214.249 108.616 215.451L99.0849 224.969L89.5536 215.451C88.3503 214.249 86.3765 214.249 85.1732 215.451L75.642 224.969L66.1107 215.451C64.9074 214.249 62.9336 214.249 61.7303 215.451L50.5902 226.576L50.6308 226.549Z" fill="#2B62E1"/>
<path fill-rule="evenodd" clip-rule="evenodd" d="M63.2445 314.292C63.5284 306.286 61.6357 299.941 61.6357 299.941C61.6357 299.941 60.7434 279.73 61.3383 264.46C61.9196 249.784 63.8799 186.153 45.5339 168.534C34.218 177.216 21.1717 190.136 18.9815 212.035C17.4403 227.399 25.8359 278.217 32.3388 314.292H63.258H63.2445Z" fill="#262626"/>
<path fill-rule="evenodd" clip-rule="evenodd" d="M181.919 314.292C181.635 306.286 183.542 299.941 183.542 299.941C183.542 299.941 184.434 279.73 183.839 264.46C183.258 249.784 181.311 186.153 199.657 168.534C210.973 177.216 224.019 190.136 226.209 212.035C227.751 227.399 219.355 278.217 212.852 314.292H181.933H181.919Z" fill="#262626"/>
<path fill-rule="evenodd" clip-rule="evenodd" d="M102.654 140.79C102.654 140.79 102.559 143.125 100.883 145.853C105.615 149.714 111.036 153.926 113.821 155.384C117.147 157.126 121.311 157.922 125.421 157.895C129.531 157.882 133.681 157.031 136.994 155.249C139.116 154.102 142.753 151.334 146.457 148.323C143.091 144.88 142.78 141.168 142.753 140.817V95.6149C142.753 91.7941 139.617 88.6618 135.79 88.6618H109.63C105.791 88.6618 102.668 91.7941 102.668 95.6149V140.79H102.654Z" fill="#F8A8A0"/>
<path fill-rule="evenodd" clip-rule="evenodd" d="M76.0881 85.4351C76.0881 85.4351 68.3549 113.652 68.7875 117.689C69.2201 121.74 71.6537 125.412 77.4806 126.829C83.3075 128.261 110.374 128.058 121.973 123.049C133.573 118.04 76.0881 85.4216 76.0881 85.4216V85.4351Z" fill="#08196C"/>
<path fill-rule="evenodd" clip-rule="evenodd" d="M75.9664 89.7554C75.9664 89.7554 70.5856 85.138 67.3545 85.7996C64.1233 86.4612 60.811 93.8868 61.8385 99.1252C62.866 104.364 71.0588 122.064 81.0498 113.922C91.0543 105.781 75.9664 89.7689 75.9664 89.7689V89.7554Z" fill="#FFC5B0"/>
<path fill-rule="evenodd" clip-rule="evenodd" d="M80.6983 95.2504C81.1174 95.5744 81.2796 96.182 81.0903 96.614C80.9146 97.0055 80.4955 97.1 80.1169 96.884C80.1169 96.884 78.9678 113.477 76.2774 111.195C73.587 108.914 70.7884 106.753 69.3148 102.73C67.8547 98.7067 71.1129 94.5213 69.6663 93.5897C68.2873 92.6987 67.1111 94.4538 67.003 94.6158C66.0836 96.128 65.7727 97.8291 65.7727 97.8291C65.678 98.3151 65.2319 98.5447 64.7857 98.3286C64.3396 98.1126 64.0557 97.5456 64.1503 97.046C64.1503 97.0325 65.3401 90.6465 69.9097 90.363C74.2765 90.093 80.6848 95.2099 80.7118 95.2234L80.6983 95.2504Z" fill="#F8A8A0"/>
<path fill-rule="evenodd" clip-rule="evenodd" d="M163.195 80.5072C163.195 80.5072 167.48 74.8637 170.779 74.8232C174.078 74.7827 178.877 81.3577 178.972 86.6907C179.067 92.0236 174.794 111.047 163.303 105.187C151.811 99.3277 163.195 80.4937 163.195 80.4937V80.5072Z" fill="#FFC5B0"/>
<path fill-rule="evenodd" clip-rule="evenodd" d="M159.72 86.8661C159.382 87.2712 159.342 87.9057 159.625 88.2703C159.882 88.6078 160.315 88.6213 160.639 88.3378C160.639 88.3378 165.25 104.323 167.399 101.528C169.549 98.7336 171.834 96.0334 172.415 91.794C173.01 87.5547 168.927 84.1524 170.144 82.9373C171.306 81.7762 172.821 83.2478 172.969 83.3829C174.186 84.6655 174.849 86.2586 174.849 86.2721C175.051 86.7311 175.524 86.8526 175.917 86.5556C176.309 86.2451 176.471 85.624 176.268 85.165C176.268 85.1515 173.753 79.157 169.238 79.8321C164.912 80.4801 159.72 86.8391 159.707 86.8526L159.72 86.8661Z" fill="#F8A8A0"/>
<path fill-rule="evenodd" clip-rule="evenodd" d="M112.767 21.0618C171.36 15.7018 167.588 62.0917 166.331 99.3007C165.804 114.962 158.219 124.993 158.219 124.993C158.219 124.993 143.267 141.195 137.9 144.84C134.695 147 130.545 148.296 126.34 148.728C122.149 149.174 117.809 148.796 114.227 147.351C108.211 144.921 90.189 132.216 90.189 132.216C90.189 132.216 80.6712 124.008 76.8587 108.805C67.8006 72.69 54.3487 28.1229 112.767 21.0618Z" fill="#FFC5B0"/>
<path fill-rule="evenodd" clip-rule="evenodd" d="M70.9507 83.6664C67.4626 65.3724 67.003 47.5509 78.3323 35.4404C82.1178 34.6844 86.0655 34.5763 90.1349 35.4269C113.078 40.2063 162.789 66.979 162.789 66.979L163.195 70.7863L162.965 72.69C162.965 72.69 116.647 62.5641 70.9507 83.6799V83.6664Z" fill="#F8A8A0"/>
<path fill-rule="evenodd" clip-rule="evenodd" d="M144.497 78.9275C141.198 79.2785 138.792 82.2623 139.143 85.543L139.752 91.281C140.103 94.5753 143.091 96.9785 146.376 96.6274C149.675 96.2764 152.082 93.2927 151.73 90.0119L151.122 84.2739C150.77 80.9797 147.782 78.5765 144.484 78.9275H144.497Z" fill="#262626"/>
<path fill-rule="evenodd" clip-rule="evenodd" d="M102.181 83.4234C98.8821 83.7744 96.4756 86.7582 96.8271 90.0524L97.4355 95.7904C97.787 99.0847 100.775 101.488 104.06 101.137C107.359 100.786 109.765 97.8021 109.414 94.5213L108.805 88.7833C108.454 85.4891 105.466 83.0859 102.167 83.4369L102.181 83.4234Z" fill="#262626"/>
<path fill-rule="evenodd" clip-rule="evenodd" d="M114.565 118.688C114.092 118.553 113.605 118.823 113.47 119.296C113.334 119.768 113.605 120.254 114.078 120.389C114.119 120.389 128.314 124.575 138.954 117.716C139.36 117.446 139.481 116.906 139.224 116.488C138.954 116.083 138.413 115.961 137.994 116.218C128.044 122.631 114.605 118.688 114.565 118.675V118.688Z" fill="#F68B85"/>
<path fill-rule="evenodd" clip-rule="evenodd" d="M130.207 125.331C130.68 125.196 130.95 124.71 130.815 124.237C130.68 123.765 130.18 123.495 129.72 123.63C129.72 123.63 126.043 124.683 124.475 124.237C124.001 124.102 123.515 124.386 123.38 124.845C123.244 125.317 123.515 125.803 123.988 125.938C126.043 126.519 130.207 125.331 130.207 125.331Z" fill="#F68B85"/>
<path fill-rule="evenodd" clip-rule="evenodd" d="M126.759 91.389C126.557 90.9435 126.029 90.7545 125.583 90.9435C125.137 91.146 124.934 91.6726 125.137 92.1181C125.151 92.1451 130.099 102.932 129.991 103.783C129.937 104.215 129.369 104.985 128.49 105.714C127.76 106.321 126.841 106.834 125.84 107.037C125.367 107.131 125.056 107.604 125.151 108.076C125.245 108.562 125.718 108.859 126.192 108.765C127.503 108.495 128.693 107.833 129.612 107.077C130.829 106.078 131.64 104.836 131.748 104.026C131.937 102.649 126.773 91.4161 126.759 91.389Z" fill="#F68B85"/>
<path fill-rule="evenodd" clip-rule="evenodd" d="M107.575 81.9923C107.575 81.9923 108.981 82.2083 110.198 81.4927C111.401 80.7772 112.212 78.563 112.104 78.0905C111.983 77.6179 111.388 78.455 108.846 77.6314C106.358 76.8214 97.2868 75.1877 91.9195 82.0598C91.0002 83.2479 91.879 83.9904 93.1498 83.4099C94.4206 82.8294 99.7068 79.3596 107.589 81.9923H107.575Z" fill="#262626"/>
<path fill-rule="evenodd" clip-rule="evenodd" d="M139.887 73.9996C139.887 73.9996 138.535 74.4316 137.224 73.9321C135.912 73.419 134.749 71.3669 134.79 70.8808C134.831 70.3948 135.561 71.1238 137.927 69.9087C140.252 68.7071 148.931 65.6289 155.353 71.5424C156.462 72.5685 155.705 73.446 154.366 73.068C153.028 72.7035 147.242 70.1248 139.887 73.9996Z" fill="#262626"/>
<path fill-rule="evenodd" clip-rule="evenodd" d="M69.9232 86.0966C71.7889 85.8266 74.3847 98.7067 74.7767 100.543C74.7767 100.543 85.5924 91.0245 81.6176 75.0797C81.6176 75.0797 75.8583 76.6863 77.3995 73.6081C74.3847 75.4577 72.519 76.4568 72.519 76.4568L69.1255 81.2497L69.9232 86.0831V86.0966Z" fill="#262626"/>
<path fill-rule="evenodd" clip-rule="evenodd" d="M168.278 75.6467C166.101 77.3074 166.791 80.0751 166.791 81.9653C166.791 81.9653 162.032 76.0383 162.167 69.2607C162.167 69.2607 160.504 67.6946 158.355 65.0079C161.68 66.1825 163.722 66.763 163.722 66.763L168.048 70.7323L168.278 75.6332V75.6467Z" fill="#262626"/>
<path fill-rule="evenodd" clip-rule="evenodd" d="M110.522 0.0270272C108.089 0.283548 106.331 2.45723 106.588 4.88743C106.845 7.31763 109.022 9.07277 111.455 8.81625C113.889 8.55973 115.646 6.38605 115.389 3.95585C115.133 1.52565 112.956 -0.229494 110.522 0.0270272Z" fill="#2B62E1"/>
<path fill-rule="evenodd" clip-rule="evenodd" d="M102.749 51.1152C102.019 44.2431 108.265 40.6518 114.768 39.9633C121.257 39.2747 128.138 41.4754 128.868 48.3475L130.031 59.2969L103.911 62.0646L102.749 51.1152Z" fill="#262626"/>
<path fill-rule="evenodd" clip-rule="evenodd" d="M117.566 59.4994L103.519 60.998C100.802 61.2815 98.828 63.7387 99.1119 66.4525C99.3958 69.1662 101.856 71.1374 104.574 70.8538L118.621 69.3687C121.338 69.0852 123.312 66.628 123.028 63.9143C122.744 61.2005 120.284 59.2159 117.566 59.5129V59.4994Z" fill="#262626"/>
<path fill-rule="evenodd" clip-rule="evenodd" d="M131.37 58.0278L113.159 59.9585C110.441 60.242 108.467 62.6992 108.751 65.4129C109.035 68.1266 111.496 70.1113 114.213 69.8143L132.424 67.8836C135.142 67.6001 137.115 65.1429 136.831 62.4292C136.548 59.7154 134.087 57.7308 131.37 58.0278Z" fill="#0D2682"/>
<path fill-rule="evenodd" clip-rule="evenodd" d="M110.847 3.11878C82.929 6.07553 62.5145 31.3226 65.4753 59.2024L67.7736 80.7637C67.7736 80.7637 68.1386 81.9518 69.6528 81.8708C71.1805 81.7897 79.9817 73.9861 105.074 71.3264C105.074 71.3264 106.277 71.0834 106.074 69.1797C105.872 67.2761 104.804 57.1772 104.141 51.0342C103.492 44.8912 109.076 41.678 114.889 41.0704C120.703 40.4494 126.841 42.4205 127.489 48.5635C128.138 54.7065 129.22 64.8054 129.423 66.709C129.626 68.6127 130.856 68.5992 130.856 68.5992C155.948 65.9395 166.196 71.7179 167.71 71.4749C169.197 71.2319 169.305 70.0303 169.305 69.9898L167.007 48.4285C164.046 20.5487 138.765 0.162041 110.847 3.11878Z" fill="#F2F2F2"/>
<path fill-rule="evenodd" clip-rule="evenodd" d="M110.847 3.11881C108.238 3.38883 105.696 3.86137 103.235 4.50942C95.9754 7.35816 89.8104 13.0691 85.349 20.6027C79.4274 30.5936 76.5072 43.8247 77.9944 57.8658L80.0223 76.9564C80.3197 76.8484 80.6171 76.7404 80.9146 76.6188L78.9137 57.7713C77.4401 43.9327 80.3197 30.9041 86.1331 21.0753C91.933 11.287 100.64 4.65794 110.874 3.57785C121.108 2.49776 131.018 7.12864 138.751 15.4858C146.511 23.87 152.068 36.0075 153.542 49.8461L155.543 68.6937C155.867 68.7342 156.178 68.7882 156.489 68.8287L154.461 49.7381C152.96 35.697 147.323 23.384 139.441 14.8513C133.492 8.41124 126.259 4.13139 118.567 2.87579C116.025 2.75428 113.443 2.83529 110.833 3.10531L110.847 3.11881Z" fill="#AACAFC"/>
<path fill-rule="evenodd" clip-rule="evenodd" d="M128.53 58.3248L129.423 66.6955C129.626 68.5992 130.856 68.5857 130.856 68.5857C155.948 65.926 166.196 71.7044 167.71 71.4614C169.197 71.2184 169.305 70.0168 169.305 69.9763L168.44 61.8486C168.44 61.8486 155.164 55.4896 128.53 58.3248Z" fill="#2B62E1"/>
<path fill-rule="evenodd" clip-rule="evenodd" d="M105.182 60.809L106.074 69.1797C106.277 71.0834 105.074 71.3264 105.074 71.3264C79.9817 73.9861 71.1805 81.7897 69.6528 81.8707C68.1386 81.9518 67.7871 80.8042 67.7736 80.7637L66.9083 72.636C66.9083 72.636 78.5622 63.6308 105.182 60.809Z" fill="#2B62E1"/>
<path fill-rule="evenodd" clip-rule="evenodd" d="M113.037 41.3539C111.672 34.4279 119.418 32.6997 118.769 37.1551C137.616 7.56065 159.734 53.7479 128.517 58.3248L113.024 41.3404L113.037 41.3539Z" fill="#262626"/>
<path fill-rule="evenodd" clip-rule="evenodd" d="M113.429 63.7793C112.807 63.8468 112.348 64.4003 112.415 65.0349C112.483 65.6559 113.037 66.115 113.672 66.0475C114.294 65.98 114.754 65.4129 114.686 64.7919C114.619 64.1708 114.065 63.7118 113.429 63.7793Z" fill="#AACAFC"/>
<path fill-rule="evenodd" clip-rule="evenodd" d="M119.175 63.1717C118.553 63.2392 118.093 63.7927 118.161 64.4273C118.229 65.0483 118.783 65.5074 119.418 65.4399C120.04 65.3724 120.5 64.8188 120.432 64.1843C120.365 63.5632 119.81 63.1042 119.175 63.1717Z" fill="#AACAFC"/>
<path fill-rule="evenodd" clip-rule="evenodd" d="M124.921 62.5507C124.299 62.6182 123.839 63.1717 123.907 63.8063C123.974 64.4273 124.529 64.8863 125.164 64.8188C125.786 64.7513 126.246 64.1978 126.178 63.5632C126.11 62.9422 125.556 62.4832 124.921 62.5507Z" fill="#AACAFC"/>
<path d="M61.3383 265.067H61.3112C60.9732 265.054 60.7164 264.77 60.7299 264.446C61.5005 244.843 61.6627 208.484 54.0918 185.249C53.9836 184.938 54.1594 184.601 54.4838 184.493C54.7948 184.385 55.1328 184.56 55.2409 184.884C62.8795 208.309 62.7173 244.829 61.9466 264.5C61.9466 264.824 61.6627 265.081 61.3383 265.081V265.067ZM183.839 265.067C183.515 265.067 183.244 264.811 183.244 264.487C182.474 244.802 182.325 208.282 189.95 184.871C190.058 184.56 190.396 184.385 190.707 184.479C191.018 184.587 191.194 184.925 191.099 185.235C183.528 208.471 183.69 244.829 184.447 264.433C184.447 264.757 184.204 265.04 183.866 265.054H183.839V265.067Z" fill="#2B62E1"/>
<path fill-rule="evenodd" clip-rule="evenodd" d="M227.899 157.166C227.899 157.166 227.561 158.976 228.927 162.675C230.292 166.374 264.551 233.488 265.93 239.793C267.295 246.085 268.539 262.516 257.575 270.171C246.61 277.839 227.98 269.901 222.897 257.304C217.827 244.708 219.057 225.28 211.527 197.508C203.997 169.722 199.414 152.792 196.439 145.636L227.913 157.166H227.899Z" fill="#FFC5B0"/>
<path fill-rule="evenodd" clip-rule="evenodd" d="M202.009 162.891C199.684 154.79 197.872 149.079 196.439 145.636L214.069 152.104L203.24 151.833C203.24 151.833 200.752 153.413 202.009 162.904V162.891Z" fill="#F8A8A0"/>
<path fill-rule="evenodd" clip-rule="evenodd" d="M208.242 100.408C206.66 92.4691 194.857 88.4998 196.737 97.5725C197.359 100.556 197.291 103.864 197.291 103.864L208.255 100.408H208.242Z" fill="#F8A8A0"/>
<path d="M230.495 70.7814L235.305 65.9803C235.544 65.7417 235.936 65.7322 236.184 65.9804L238.641 68.4344C238.88 68.6731 238.889 69.0645 238.641 69.3127L233.831 74.1138C233.592 74.3525 233.2 74.3619 232.952 74.1137L230.495 71.6597C230.256 71.421 230.256 71.0392 230.495 70.8005L230.495 70.7814Z" fill="#464646"/>
<path fill-rule="evenodd" clip-rule="evenodd" d="M175.335 129.044C175.335 129.044 175.295 128.423 176.241 127.477C176.674 127.045 178.891 126.438 177.039 128.274C176.079 129.233 175.47 129.179 175.47 129.179C175.389 129.179 175.335 129.111 175.335 129.044Z" fill="#464646"/>
<path fill-rule="evenodd" clip-rule="evenodd" d="M183.947 115.907C183.947 115.907 183.704 116.15 182.514 117.338C181.311 118.54 179.148 122.577 176.295 126.978C176.295 126.978 176.079 127.288 176.309 127.518C176.538 127.748 176.66 127.869 176.66 127.869C176.66 127.869 176.782 127.991 177.012 128.22C177.241 128.45 177.552 128.234 177.552 128.234C181.96 125.385 186.002 123.225 187.205 122.023C188.409 120.821 188.638 120.592 188.638 120.592L188.192 116.353L183.947 115.907Z" fill="#F2F2F2"/>
<path d="M233.196 66.7295L237.651 62.2807C237.985 61.9466 238.54 61.9466 238.874 62.2807L242.335 65.7366C242.67 66.0707 242.67 66.6244 242.335 66.9586L237.88 71.4074C237.546 71.7415 236.991 71.7415 236.657 71.4074L233.196 67.9514C232.861 67.6173 232.861 67.0636 233.196 66.7295Z" fill="#F2F2F2"/>
<path fill-rule="evenodd" clip-rule="evenodd" d="M235.457 72.609L231.996 69.1527C231.658 68.8152 231.103 68.8152 230.779 69.1527L183.947 115.921C183.609 116.258 183.609 116.812 183.947 117.149L187.408 120.605C187.746 120.943 188.3 120.943 188.625 120.605L235.457 73.8376C235.795 73.5 235.795 72.9465 235.457 72.6225V72.609Z" fill="#F2F2F2"/>
<path fill-rule="evenodd" clip-rule="evenodd" d="M232.834 73.23L231.36 71.7584C231.212 71.6099 230.982 71.6099 230.847 71.7584L212.379 90.2009C211.838 90.741 211.838 91.6456 212.379 92.1856C212.92 92.7256 213.825 92.7256 214.366 92.1856L232.834 73.7431C232.983 73.5946 232.983 73.3651 232.834 73.23Z" fill="#F2F2F2"/>
<path d="M184.256 113.789L196.463 101.598C196.932 101.13 197.697 101.13 198.165 101.598L202.983 106.409C203.452 106.877 203.452 107.641 202.983 108.109L190.775 120.3C190.307 120.768 189.542 120.768 189.074 120.3L184.256 115.488C183.787 115.021 183.787 114.257 184.256 113.789Z" fill="#262626"/>
<path fill-rule="evenodd" clip-rule="evenodd" d="M226.98 108.508V97.4915C226.98 97.4915 227.115 95.3718 225.817 94.0082C224.519 92.6446 217.733 87.2712 217.733 87.2712C217.733 87.2712 216.097 85.8806 213.974 85.9346C211.852 86.0021 203.97 86.2046 203.97 86.2046C203.97 86.2046 202.05 86.4071 202.604 88.5943C203.158 90.7815 206.471 95.1018 213.19 94.8858L213.744 98.5851C213.744 98.5851 209.012 98.2746 206.93 100.097C204.835 101.906 193.952 114.503 193.37 115.191C192.789 115.88 193.1 118.958 196.764 119.741C196.764 119.741 187.516 144.718 203.267 151.833C203.267 151.833 212.446 164.282 227.94 157.166L241.649 134.579C241.649 134.579 246.029 128.76 241.987 123.832C237.944 118.904 227.021 108.508 227.021 108.508H226.98Z" fill="#FFC5B0"/>
<path d="M204.402 145.623C204.402 145.623 204.335 145.623 204.294 145.623C203.97 145.569 203.753 145.258 203.807 144.934C204.74 139.507 208.701 135.565 210.527 133.985C210.053 133.783 209.661 133.512 209.323 133.161C208.985 132.81 208.783 132.432 208.647 132.095C207.552 132.729 206.038 132.797 204.889 132.486C203.916 132.216 203.321 131.69 203.253 131.042C203.104 129.746 203.077 122.158 203.213 120.484C203.294 119.471 203.794 118.499 204.227 117.838C202.861 118.783 201.482 119.687 200.711 120.052C198.711 120.997 196.629 120.349 196.534 120.322C196.223 120.214 196.047 119.89 196.142 119.566C196.236 119.255 196.574 119.08 196.899 119.174C196.912 119.174 198.629 119.701 200.198 118.972C201.847 118.189 206.849 114.476 207.39 114.071L214.217 106.254C214.434 106.078 217.462 103.756 221.518 105.444C221.829 105.565 221.964 105.93 221.843 106.227C221.721 106.537 221.356 106.672 221.058 106.551C217.651 105.12 215.069 107.104 215.056 107.118L208.309 114.854C208.309 114.854 208.269 114.908 208.228 114.935L205.808 117.703C205.808 117.703 204.524 119.161 204.416 120.578C204.281 122.158 204.308 129.678 204.443 130.893C204.443 130.947 204.673 131.19 205.281 131.339C206.349 131.609 207.823 131.447 208.485 130.704L210.784 123.67C210.838 123.535 211.906 120.578 214.839 118.445C217.665 116.38 224.519 113.315 224.817 113.18C224.952 113.126 227.48 112.167 231.266 113.868C231.563 114.003 231.698 114.354 231.563 114.665C231.428 114.962 231.076 115.097 230.765 114.962C227.467 113.477 225.29 114.287 225.276 114.287C225.236 114.3 218.273 117.419 215.542 119.417C212.92 121.334 211.933 124.035 211.919 124.062L209.621 131.096C209.648 131.46 209.864 132.797 211.879 133.134C211.879 133.134 211.906 133.134 211.919 133.134C212.176 133.175 212.446 133.202 212.757 133.202C216.583 133.323 218.855 129.152 219.909 126.694C220.004 126.465 220.193 126.303 220.491 126.33C221.004 126.357 222.505 126.33 223.316 125.979C223.343 125.979 223.37 125.952 223.411 125.938C223.505 125.911 225.723 125.223 227.25 122.172C227.399 121.875 227.764 121.753 228.062 121.902C228.359 122.05 228.481 122.415 228.332 122.712C226.98 125.412 225.087 126.532 224.222 126.91C224.371 127.842 225.128 130.191 229.062 131.339C229.386 131.433 229.562 131.771 229.468 132.081C229.373 132.405 229.035 132.581 228.724 132.486C224.425 131.231 223.343 128.639 223.073 127.302C222.262 127.491 221.342 127.531 220.856 127.518C219.612 130.286 217.003 134.458 212.744 134.39C212.473 134.39 212.217 134.363 211.973 134.336C210.946 135.146 205.984 139.291 204.984 145.11C204.93 145.407 204.673 145.609 204.389 145.609L204.402 145.623ZM226.98 109.116C226.831 109.116 226.683 109.062 226.561 108.954C226.493 108.886 219.531 102.284 217.449 100.57C215.569 99.0307 213.852 99.1927 213.785 99.1927C213.46 99.2332 213.163 98.9902 213.122 98.6661C213.082 98.3421 213.312 98.0451 213.65 98.0046C213.744 97.9911 215.921 97.7481 218.219 99.6382C220.328 101.38 227.115 107.806 227.399 108.076C227.642 108.306 227.656 108.684 227.426 108.927C227.304 109.048 227.156 109.116 226.993 109.116H226.98Z" fill="#F8A8A0"/>
<path fill-rule="evenodd" clip-rule="evenodd" d="M266.754 236.566C266.754 236.566 271.554 249.568 271.959 255.184C272.365 260.801 268.715 276.678 254.695 281.188C240.675 285.684 223.83 274.599 221.531 268.321C219.233 262.043 220.842 245.734 220.842 245.734C220.842 245.734 247.151 275.288 266.754 236.566Z" fill="#262626"/>
<path fill-rule="evenodd" clip-rule="evenodd" d="M251.275 208.039C251.275 208.039 255.871 208.93 257.791 211.252C259.711 213.574 268.201 231.99 269.296 239.24C270.391 246.49 269.296 262.502 255.722 268.794C242.149 275.085 226.669 270.846 223.384 268.659C220.098 266.471 218.179 262.772 217.489 255.927C216.8 249.082 216.056 242.034 215.569 234.163C215.096 226.292 217.124 225.455 217.124 225.455C217.124 225.455 218.922 236.35 223.789 244.289C228.656 252.228 239.404 255.036 248.246 251.269C257.088 247.502 262.117 230.64 251.261 208.025L251.275 208.039Z" fill="#262626"/>
<path fill-rule="evenodd" clip-rule="evenodd" d="M251.783 238H3.63127C1.42758 238 -0.208284 239.809 0.021548 242.01L11.0129 349.02C11.2428 351.234 13.2302 353.029 15.4474 353.029H239.953C242.157 353.029 244.158 351.22 244.388 349.02L255.379 242.01C255.609 239.796 253.986 238 251.769 238H251.783Z" fill="#717378"/>
<path fill-rule="evenodd" clip-rule="evenodd" d="M251.775 241.467H3.62324C2.0009 241.467 0.703018 242.44 0.202795 243.83L0.013521 241.98C-0.216311 239.766 1.40604 237.971 3.62324 237.971H251.775C253.978 237.971 255.601 239.78 255.384 241.98L255.195 243.83C254.708 242.44 253.397 241.467 251.775 241.467Z" fill="#525767"/>
<path d="M132.385 296.105C132.377 294.545 133.082 293.367 134.511 292.5C133.712 291.356 132.504 290.727 130.91 290.604C129.401 290.485 127.752 291.484 127.148 291.484C126.511 291.484 125.048 290.647 123.901 290.647C121.529 290.685 119.008 292.538 119.008 296.309C119.008 297.422 119.212 298.573 119.62 299.76C120.164 301.32 122.128 305.146 124.177 305.082C125.248 305.057 126.005 304.321 127.399 304.321C128.751 304.321 129.452 305.082 130.647 305.082C132.713 305.053 134.489 301.575 135.008 300.011C132.237 298.706 132.385 296.185 132.385 296.105ZM129.979 289.125C131.14 287.748 131.034 286.494 131 286.043C129.975 286.102 128.789 286.74 128.113 287.526C127.369 288.368 126.932 289.41 127.025 290.583C128.135 290.668 129.146 290.098 129.979 289.125Z" fill="#A6A8AE"/>
</g>
<defs>
<clipPath id="clip0_5_9">
<rect width="272" height="353" fill="white"/>
</clipPath>
</defs>
</svg>
