<svg width="274" height="214" viewBox="0 0 274 214" fill="none" xmlns="http://www.w3.org/2000/svg">
<g clip-path="url(#clip0_14_2)">
<path d="M9.06647 0H264.934C269.938 0 274 4.05999 274 9.06126V204.939C274 209.94 269.938 214 264.934 214H9.06647C4.06233 214 0 209.94 0 204.939V9.06126C0 4.05999 4.06233 0 9.06647 0Z" fill="#262626" fill-opacity="0.3"/>
<path d="M41.945 40.7192H17.3795C16.9243 40.7192 16.557 40.3489 16.557 39.8971C16.557 39.4453 16.9274 39.0751 17.3795 39.0751H41.945C42.4002 39.0751 42.7675 39.4453 42.7675 39.8971C42.7675 40.3489 42.397 40.7192 41.945 40.7192Z" fill="white"/>
<path d="M47.2536 50.0848H33.114C32.6587 50.0848 32.2914 49.7145 32.2914 49.2627C32.2914 48.8109 32.6587 48.4407 33.114 48.4407H47.2536C47.7088 48.4407 48.0761 48.8109 48.0761 49.2627C48.0761 49.7145 47.7057 50.0848 47.2536 50.0848Z" fill="white"/>
<path d="M57.6794 57.8597H33.114C32.6587 57.8597 32.2914 57.4894 32.2914 57.0376C32.2914 56.5858 32.6587 56.2156 33.114 56.2156H57.6794C58.1346 56.2156 58.5019 56.5858 58.5019 57.0376C58.5019 57.4894 58.1315 57.8597 57.6794 57.8597Z" fill="white"/>
<path d="M111.497 65.6344H33.114C32.6587 65.6344 32.2914 65.2642 32.2914 64.8124C32.2914 64.3606 32.6587 63.9904 33.114 63.9904H111.497C111.95 63.9904 112.32 64.3606 112.32 64.8124C112.32 65.2642 111.95 65.6344 111.497 65.6344Z" fill="white"/>
<path d="M162.013 73.4062H33.114C32.6587 73.4062 32.2914 73.0359 32.2914 72.5841C32.2914 72.1323 32.6587 71.7621 33.114 71.7621H162.01C162.462 71.7621 162.832 72.1323 162.832 72.5841C162.832 73.0359 162.462 73.4062 162.01 73.4062H162.013Z" fill="white"/>
<path d="M57.6794 96.7276H33.114C32.6587 96.7276 32.2914 96.3574 32.2914 95.9055C32.2914 95.4537 32.6587 95.0835 33.114 95.0835H57.6794C58.1346 95.0835 58.5019 95.4537 58.5019 95.9055C58.5019 96.3574 58.1315 96.7276 57.6794 96.7276Z" fill="white"/>
<path d="M82.923 104.499H33.114C32.6587 104.499 32.2914 104.129 32.2914 103.674C32.2914 103.219 32.6587 102.852 33.114 102.852H82.923C83.3782 102.852 83.7455 103.222 83.7455 103.674C83.7455 104.126 83.3782 104.499 82.923 104.499Z" fill="white"/>
<path d="M71.9572 50.0848H51.4666C51.0146 50.0848 50.6441 49.7145 50.6441 49.2627C50.6441 48.8109 51.0146 48.4407 51.4666 48.4407H71.9572C72.4124 48.4407 72.7797 48.8109 72.7797 49.2627C72.7797 49.7145 72.4093 50.0848 71.9572 50.0848Z" fill="white"/>
<path d="M110.465 50.0848H75.8971C75.4419 50.0848 75.0746 49.7145 75.0746 49.2627C75.0746 48.8109 75.4451 48.4407 75.8971 48.4407H110.465C110.92 48.4407 111.287 48.8109 111.287 49.2627C111.287 49.7145 110.917 50.0848 110.465 50.0848Z" fill="white"/>
<path d="M150.488 50.0848H115.924C115.469 50.0848 115.101 49.7145 115.101 49.2627C115.101 48.8109 115.472 48.4407 115.924 48.4407H150.488C150.943 48.4407 151.311 48.8109 151.311 49.2627C151.311 49.7145 150.94 50.0848 150.488 50.0848Z" fill="white"/>
<path d="M221.431 50.0848H158.158C157.703 50.0848 157.335 49.7145 157.335 49.2627C157.335 48.8109 157.706 48.4407 158.158 48.4407H221.431C221.884 48.4407 222.254 48.8109 222.254 49.2627C222.254 49.7145 221.884 50.0848 221.431 50.0848Z" fill="white"/>
<path d="M64.8591 57.8597H61.7449C61.2928 57.8597 60.9224 57.4894 60.9224 57.0376C60.9224 56.5858 61.2928 56.2156 61.7449 56.2156H64.8591C65.3143 56.2156 65.6816 56.5858 65.6816 57.0376C65.6816 57.4894 65.3112 57.8597 64.8591 57.8597Z" fill="white"/>
<path d="M140.207 57.8597H69.9637C69.5085 57.8597 69.1412 57.4894 69.1412 57.0376C69.1412 56.5858 69.5117 56.2156 69.9637 56.2156H140.207C140.662 56.2156 141.029 56.5858 141.029 57.0376C141.029 57.4894 140.659 57.8597 140.207 57.8597Z" fill="white"/>
<path d="M169.199 57.8597H144.633C144.181 57.8597 143.811 57.4894 143.811 57.0376C143.811 56.5858 144.181 56.2156 144.633 56.2156H169.199C169.654 56.2156 170.021 56.5858 170.021 57.0376C170.021 57.4894 169.651 57.8597 169.199 57.8597Z" fill="white"/>
<path d="M143.516 65.6344H118.95C118.495 65.6344 118.128 65.2642 118.128 64.8124C118.128 64.3606 118.498 63.9904 118.95 63.9904H143.516C143.971 63.9904 144.338 64.3606 144.338 64.8124C144.338 65.2642 143.971 65.6344 143.516 65.6344Z" fill="white"/>
<path d="M150.692 65.6344H147.578C147.126 65.6344 146.756 65.2642 146.756 64.8124C146.756 64.3606 147.126 63.9904 147.578 63.9904H150.692C151.148 63.9904 151.515 64.3606 151.515 64.8124C151.515 65.2642 151.144 65.6344 150.692 65.6344Z" fill="white"/>
<path d="M49.3225 81.1779H33.1171C32.6619 81.1779 32.2946 80.8077 32.2946 80.3558C32.2946 79.904 32.6619 79.5338 33.1171 79.5338H49.3225C49.7745 79.5338 50.145 79.904 50.145 80.3558C50.145 80.8077 49.7745 81.1779 49.3225 81.1779Z" fill="white"/>
<path d="M77.6363 81.1779H54.1539C53.6987 81.1779 53.3314 80.8077 53.3314 80.3558C53.3314 79.904 53.7019 79.5338 54.1539 79.5338H77.6363C78.0915 79.5338 78.4588 79.904 78.4588 80.3558C78.4588 80.8077 78.0915 81.1779 77.6363 81.1779Z" fill="white"/>
<path d="M121.773 81.1779H82.1507C81.6986 81.1779 81.3282 80.8077 81.3282 80.3558C81.3282 79.904 81.6986 79.5338 82.1507 79.5338H121.773C122.225 79.5338 122.595 79.904 122.595 80.3558C122.595 80.8077 122.225 81.1779 121.773 81.1779Z" fill="white"/>
<path d="M167.648 81.1779H128.029C127.574 81.1779 127.207 80.8077 127.207 80.3558C127.207 79.904 127.574 79.5338 128.029 79.5338H167.648C168.103 79.5338 168.471 79.904 168.471 80.3558C168.471 80.8077 168.1 81.1779 167.648 81.1779Z" fill="white"/>
<path d="M248.964 81.1779H176.438C175.983 81.1779 175.616 80.8077 175.616 80.3558C175.616 79.904 175.986 79.5338 176.438 79.5338H248.964C249.416 79.5338 249.786 79.904 249.786 80.3558C249.786 80.8077 249.416 81.1779 248.964 81.1779Z" fill="white"/>
<path d="M150.692 88.9528H72.3088C71.8536 88.9528 71.4863 88.5826 71.4863 88.1308C71.4863 87.679 71.8568 87.3087 72.3088 87.3087H150.692C151.148 87.3087 151.515 87.679 151.515 88.1308C151.515 88.5826 151.144 88.9528 150.692 88.9528Z" fill="white"/>
<path d="M64.8591 88.9528H40.2905C39.8353 88.9528 39.468 88.5826 39.468 88.1308C39.468 87.679 39.8385 87.3087 40.2905 87.3087H64.8591C65.3144 87.3087 65.6817 87.679 65.6817 88.1308C65.6817 88.5826 65.3112 88.9528 64.8591 88.9528Z" fill="white"/>
<path d="M36.2251 88.9528H33.114C32.6587 88.9528 32.2914 88.5826 32.2914 88.1308C32.2914 87.679 32.6587 87.3087 33.114 87.3087H36.2251C36.6771 87.3087 37.0476 87.679 37.0476 88.1308C37.0476 88.5826 36.6771 88.9528 36.2251 88.9528Z" fill="white"/>
<path d="M117.428 104.499H87.8926C87.4374 104.499 87.0701 104.129 87.0701 103.674C87.0701 103.219 87.4405 102.852 87.8926 102.852H117.428C117.88 102.852 118.25 103.222 118.25 103.674C118.25 104.126 117.88 104.499 117.428 104.499Z" fill="white"/>
<path d="M41.945 116.042H17.3795C16.9243 116.042 16.557 115.672 16.557 115.22C16.557 114.769 16.9274 114.398 17.3795 114.398H41.945C42.4002 114.398 42.7675 114.769 42.7675 115.22C42.7675 115.672 42.397 116.042 41.945 116.042Z" fill="white"/>
<path d="M47.2536 125.408H33.114C32.6587 125.408 32.2914 125.038 32.2914 124.586C32.2914 124.134 32.6587 123.764 33.114 123.764H47.2536C47.7088 123.764 48.0761 124.134 48.0761 124.586C48.0761 125.038 47.7057 125.408 47.2536 125.408Z" fill="white"/>
<path d="M57.6794 133.18H33.114C32.6587 133.18 32.2914 132.809 32.2914 132.358C32.2914 131.906 32.6587 131.536 33.114 131.536H57.6794C58.1346 131.536 58.5019 131.906 58.5019 132.358C58.5019 132.809 58.1315 133.18 57.6794 133.18Z" fill="white"/>
<path d="M111.497 140.955H33.114C32.6587 140.955 32.2914 140.584 32.2914 140.133C32.2914 139.681 32.6587 139.311 33.114 139.311H111.497C111.95 139.311 112.32 139.681 112.32 140.133C112.32 140.584 111.95 140.955 111.497 140.955Z" fill="white"/>
<path d="M162.013 148.729H33.114C32.6587 148.729 32.2914 148.359 32.2914 147.904C32.2914 147.449 32.6587 147.082 33.114 147.082H162.01C162.462 147.082 162.832 147.453 162.832 147.904C162.832 148.356 162.462 148.729 162.01 148.729H162.013Z" fill="white"/>
<path d="M57.6794 172.048H33.114C32.6587 172.048 32.2914 171.678 32.2914 171.226C32.2914 170.774 32.6587 170.404 33.114 170.404H57.6794C58.1346 170.404 58.5019 170.774 58.5019 171.226C58.5019 171.678 58.1315 172.048 57.6794 172.048Z" fill="white"/>
<path d="M82.923 179.819H33.114C32.6587 179.819 32.2914 179.449 32.2914 178.997C32.2914 178.546 32.6587 178.175 33.114 178.175H82.923C83.3782 178.175 83.7455 178.546 83.7455 178.997C83.7455 179.449 83.3782 179.819 82.923 179.819Z" fill="white"/>
<path d="M71.9572 125.408H51.4666C51.0146 125.408 50.6441 125.038 50.6441 124.586C50.6441 124.134 51.0146 123.764 51.4666 123.764H71.9572C72.4124 123.764 72.7797 124.134 72.7797 124.586C72.7797 125.038 72.4093 125.408 71.9572 125.408Z" fill="white"/>
<path d="M110.465 125.408H75.8971C75.4419 125.408 75.0746 125.038 75.0746 124.586C75.0746 124.134 75.4451 123.764 75.8971 123.764H110.465C110.92 123.764 111.287 124.134 111.287 124.586C111.287 125.038 110.917 125.408 110.465 125.408Z" fill="white"/>
<path d="M150.488 125.408H115.924C115.469 125.408 115.101 125.038 115.101 124.586C115.101 124.134 115.472 123.764 115.924 123.764H150.488C150.943 123.764 151.311 124.134 151.311 124.586C151.311 125.038 150.94 125.408 150.488 125.408Z" fill="white"/>
<path d="M221.431 125.408H158.158C157.703 125.408 157.335 125.038 157.335 124.586C157.335 124.134 157.706 123.764 158.158 123.764H221.431C221.884 123.764 222.254 124.134 222.254 124.586C222.254 125.038 221.884 125.408 221.431 125.408Z" fill="white"/>
<path d="M64.8591 133.18H61.7449C61.2928 133.18 60.9224 132.809 60.9224 132.358C60.9224 131.906 61.2928 131.536 61.7449 131.536H64.8591C65.3143 131.536 65.6816 131.906 65.6816 132.358C65.6816 132.809 65.3112 133.18 64.8591 133.18Z" fill="white"/>
<path d="M140.207 133.18H69.9637C69.5085 133.18 69.1412 132.809 69.1412 132.358C69.1412 131.906 69.5117 131.536 69.9637 131.536H140.207C140.662 131.536 141.029 131.906 141.029 132.358C141.029 132.809 140.659 133.18 140.207 133.18Z" fill="white"/>
<path d="M169.199 133.18H144.633C144.181 133.18 143.811 132.809 143.811 132.358C143.811 131.906 144.181 131.536 144.633 131.536H169.199C169.654 131.536 170.021 131.906 170.021 132.358C170.021 132.809 169.651 133.18 169.199 133.18Z" fill="white"/>
<path d="M143.516 140.955H118.95C118.495 140.955 118.128 140.584 118.128 140.133C118.128 139.681 118.498 139.311 118.95 139.311H143.516C143.971 139.311 144.338 139.681 144.338 140.133C144.338 140.584 143.971 140.955 143.516 140.955Z" fill="white"/>
<path d="M150.692 140.955H147.578C147.126 140.955 146.756 140.584 146.756 140.133C146.756 139.681 147.126 139.311 147.578 139.311H150.692C151.148 139.311 151.515 139.681 151.515 140.133C151.515 140.584 151.144 140.955 150.692 140.955Z" fill="white"/>
<path d="M49.3225 156.501H33.1171C32.6619 156.501 32.2946 156.131 32.2946 155.679C32.2946 155.227 32.6619 154.854 33.1171 154.854H49.3225C49.7745 154.854 50.145 155.224 50.145 155.679C50.145 156.134 49.7745 156.501 49.3225 156.501Z" fill="white"/>
<path d="M77.6363 156.501H54.1539C53.6987 156.501 53.3314 156.131 53.3314 155.679C53.3314 155.227 53.7019 154.854 54.1539 154.854H77.6363C78.0915 154.854 78.4588 155.224 78.4588 155.679C78.4588 156.134 78.0915 156.501 77.6363 156.501Z" fill="white"/>
<path d="M121.773 156.501H82.1507C81.6986 156.501 81.3282 156.131 81.3282 155.679C81.3282 155.227 81.6986 154.854 82.1507 154.854H121.773C122.225 154.854 122.595 155.224 122.595 155.679C122.595 156.134 122.225 156.501 121.773 156.501Z" fill="white"/>
<path d="M167.648 156.501H128.029C127.574 156.501 127.207 156.131 127.207 155.679C127.207 155.227 127.574 154.854 128.029 154.854H167.648C168.103 154.854 168.471 155.224 168.471 155.679C168.471 156.134 168.1 156.501 167.648 156.501Z" fill="white"/>
<path d="M248.964 156.501H176.438C175.983 156.501 175.616 156.131 175.616 155.679C175.616 155.227 175.986 154.854 176.438 154.854H248.964C249.416 154.854 249.786 155.224 249.786 155.679C249.786 156.134 249.416 156.501 248.964 156.501Z" fill="white"/>
<path d="M150.692 164.276H72.3088C71.8536 164.276 71.4863 163.906 71.4863 163.454C71.4863 163.002 71.8568 162.632 72.3088 162.632H150.692C151.148 162.632 151.515 163.002 151.515 163.454C151.515 163.906 151.144 164.276 150.692 164.276Z" fill="white"/>
<path d="M64.8591 164.276H40.2905C39.8353 164.276 39.468 163.906 39.468 163.454C39.468 163.002 39.8385 162.632 40.2905 162.632H64.8591C65.3144 162.632 65.6817 163.002 65.6817 163.454C65.6817 163.906 65.3112 164.276 64.8591 164.276Z" fill="white"/>
<path d="M36.2251 164.276H33.114C32.6587 164.276 32.2914 163.906 32.2914 163.454C32.2914 163.002 32.6587 162.632 33.114 162.632H36.2251C36.6771 162.632 37.0476 163.002 37.0476 163.454C37.0476 163.906 36.6771 164.276 36.2251 164.276Z" fill="white"/>
<path d="M117.428 179.819H87.8926C87.4374 179.819 87.0701 179.449 87.0701 178.997C87.0701 178.546 87.4405 178.175 87.8926 178.175H117.428C117.88 178.175 118.25 178.546 118.25 178.997C118.25 179.449 117.88 179.819 117.428 179.819Z" fill="white"/>
<path d="M41.945 191.362H17.3795C16.9243 191.362 16.557 190.992 16.557 190.54C16.557 190.089 16.9274 189.718 17.3795 189.718H41.945C42.4002 189.718 42.7675 190.089 42.7675 190.54C42.7675 190.992 42.397 191.362 41.945 191.362Z" fill="white"/>
<path d="M47.2536 200.728H33.114C32.6587 200.728 32.2914 200.358 32.2914 199.906C32.2914 199.454 32.6587 199.081 33.114 199.081H47.2536C47.7088 199.081 48.0761 199.451 48.0761 199.906C48.0761 200.361 47.7057 200.728 47.2536 200.728Z" fill="white"/>
<path d="M71.9572 200.728H51.4666C51.0146 200.728 50.6441 200.358 50.6441 199.906C50.6441 199.454 51.0146 199.081 51.4666 199.081H71.9572C72.4124 199.081 72.7797 199.451 72.7797 199.906C72.7797 200.361 72.4093 200.728 71.9572 200.728Z" fill="white"/>
<path d="M110.465 200.728H75.8971C75.4419 200.728 75.0746 200.358 75.0746 199.906C75.0746 199.454 75.4451 199.081 75.8971 199.081H110.465C110.92 199.081 111.287 199.451 111.287 199.906C111.287 200.361 110.917 200.728 110.465 200.728Z" fill="white"/>
<path d="M150.488 200.728H115.924C115.469 200.728 115.101 200.358 115.101 199.906C115.101 199.454 115.472 199.081 115.924 199.081H150.488C150.943 199.081 151.311 199.451 151.311 199.906C151.311 200.361 150.94 200.728 150.488 200.728Z" fill="white"/>
<path d="M28.2825 30.0954C28.1412 30.0954 27.9999 30.0578 27.8712 29.9856C27.4756 29.7597 27.3406 29.2546 27.5698 28.8624L36.3349 13.6892C36.5609 13.2907 37.0695 13.1621 37.4588 13.388C37.8544 13.617 37.9894 14.119 37.7602 14.5143L28.9951 29.6876C28.8444 29.9511 28.565 30.0986 28.2825 30.0986V30.0954Z" fill="white"/>
<path d="M22.9016 28.0247C22.6913 28.0247 22.4809 27.9431 22.3177 27.7831L16.8018 22.2704C16.8018 22.2704 16.8018 22.2704 16.7987 22.2673C16.6857 22.1543 16.6103 22.0131 16.5789 21.8688C16.5789 21.8688 16.5789 21.8594 16.5758 21.8562V21.85V21.8468V21.8405V21.8343V21.8249V21.8186V21.8123V21.806V21.7998V21.7935C16.5758 21.7935 16.5758 21.7935 16.5758 21.7872V21.7809V21.7747V21.7684V21.7621V21.7558V21.7496V21.7433V21.737V21.7307V21.7245V21.7182V21.7119V21.7056V21.6994V21.6931V21.6868V21.6805V21.6743V21.668V21.6617V21.6554V21.6492V21.6429V21.6366V21.6303V21.6241V21.6178V21.6115V21.6052V21.599C16.5758 21.599 16.5758 21.5958 16.5758 21.5927V21.5864V21.5801V21.5739C16.5758 21.5739 16.5758 21.5739 16.5758 21.5707V21.5644V21.5582C16.5758 21.5582 16.5758 21.555 16.5758 21.5519V21.5456V21.5393V21.5331V21.5268V21.5205V21.5142V21.508V21.5017V21.4985V21.4923V21.486V21.4797C16.5758 21.4797 16.5758 21.4672 16.5789 21.464C16.6103 21.3197 16.6857 21.1785 16.7987 21.0656C16.7987 21.0656 16.7997 21.0656 16.8018 21.0656L22.3177 15.5497C22.641 15.2266 23.1622 15.2266 23.4824 15.5497C23.8026 15.8698 23.8026 16.3938 23.4824 16.7138L18.5473 21.6492L23.4824 26.5845C23.8026 26.9046 23.8026 27.4285 23.4824 27.7486C23.3223 27.9086 23.1088 27.9901 22.8985 27.9901L22.9016 28.0247Z" fill="white"/>
<path d="M42.4284 28.0247C42.2181 28.0247 42.0046 27.9431 41.8476 27.7831C41.5243 27.4631 41.5243 26.9391 41.8476 26.6191L46.7858 21.6837L41.8476 16.7483C41.5243 16.4252 41.5243 15.9043 41.8476 15.5843C42.1678 15.2611 42.689 15.2611 43.0123 15.5843L48.5345 21.1001C48.5345 21.1001 48.5376 21.1064 48.5345 21.1033C48.6851 21.2601 48.7636 21.4609 48.7668 21.6649V21.6712V21.6774V21.6837V21.69V21.6963C48.7636 21.9002 48.6851 22.101 48.5345 22.2547C48.5345 22.2547 48.5345 22.261 48.5345 22.2579V22.261L43.0123 27.7768C42.8522 27.9368 42.6419 28.0184 42.4315 28.0184L42.4284 28.0247Z" fill="white"/>
</g>
<defs>
<clipPath id="clip0_14_2">
<rect width="274" height="214" fill="white"/>
</clipPath>
</defs>
</svg>
