<svg width="50" height="50" viewBox="0 0 50 50" fill="none" xmlns="http://www.w3.org/2000/svg">
<path d="M21.123 15.4687H13.3789C9.47266 14.4434 0.634766 14.707 0.634766 22.7734C0.634766 25.7129 2.09961 27.7734 4.05273 28.7305C1.60156 30.9766 0.439453 32.041 0.439453 33.5352C0.439453 34.6094 0.878906 35.5957 2.1875 36.1523C0.791016 37.4609 0 38.418 0 40.2051C0 43.3398 2.74414 45.166 9.92188 45.166C16.8359 45.166 20.8398 42.5879 20.8398 38.0176C20.8398 32.2852 16.4258 32.5 6.03516 31.8652L7.34375 29.7559C10.0098 30.498 18.9355 30.7324 18.9355 23.125C18.9355 21.2988 18.1836 20.0293 17.4707 19.1113L21.123 18.8379V15.4687ZM14.9316 39.0918C14.9316 42.2266 4.6875 42.2266 4.6875 39.3262C4.6875 38.5352 5.20508 37.8613 5.72266 37.2266C13.3105 37.7441 14.9316 37.5586 14.9316 39.0918ZM9.9707 25.9473C4.81445 25.9473 5.03906 18.9941 10.0879 18.9941C14.9219 18.9941 15.0488 25.9473 9.9707 25.9473ZM22.9883 35.7617V32.627C25.6055 32.2656 25.6445 32.4316 25.6445 31.5527V19.8828C25.6445 19.0527 25.4395 19.1602 22.9883 18.291L23.4277 15.0781H31.6406V31.5527C31.6406 32.1875 31.6797 32.2656 32.2754 32.3438L34.2969 32.6172V35.752L22.9883 35.7617ZM28.1152 11.9043C25.8496 11.9043 24.541 10.5957 24.541 8.33008C24.541 6.06445 25.8496 4.83398 28.1152 4.83398C30.4199 4.83398 31.7285 6.06445 31.7285 8.33008C31.7285 10.5957 30.4199 11.9043 28.1152 11.9043ZM50 34.2285C48.291 35.0586 45.791 35.8203 43.5254 35.8203C38.7988 35.8203 37.0117 33.916 37.0117 29.4238V19.0234C37.0117 18.4961 37.1191 18.623 33.916 18.623V15.0879C37.4121 14.6875 38.7988 12.9395 39.2383 8.61328H43.0078C43.0078 15.0391 42.8809 14.6484 43.3301 14.6484H48.9258V18.623H43.0078V28.1152C43.0078 28.7891 42.5293 33.1348 48.9258 30.7324L50 34.2285Z" fill="#2B62E1"/>
</svg>
