<svg width="571" height="503" viewBox="0 0 571 503" fill="none" xmlns="http://www.w3.org/2000/svg">
<g clip-path="url(#clip0_12_157)">
<path d="M281.527 201.171H159.69V390.856H281.527V201.171Z" fill="white"/>
<path fill-rule="evenodd" clip-rule="evenodd" d="M185.803 201.171H238.458C235.293 216.598 230.917 237.736 230.917 237.736C230.568 236.523 221.878 217.912 221.878 217.912C221.878 217.912 217.878 210.433 210.925 216.175C203.972 221.909 196.67 229.912 190.235 250.434C183.801 270.956 191.801 288.001 179.287 326.955C175.511 338.707 168.094 344.978 159.694 347.647V218.665C167.911 210.69 177.293 205.08 185.808 201.175L185.803 201.171Z" fill="#262626" fill-opacity="0.1"/>
<path fill-rule="evenodd" clip-rule="evenodd" d="M428.289 79.4244C428.289 79.4244 432.519 79.0661 437.731 83.4168C442.944 87.7629 457.438 110.481 455.927 120.12C454.416 129.763 421.129 119.412 421.129 118.719C421.129 118.369 419.889 110.647 418.704 102.947C417.519 95.2514 416.39 87.5883 416.61 87.3264C417.046 86.8073 428.289 79.4244 428.289 79.4244Z" fill="#4C466A"/>
<path fill-rule="evenodd" clip-rule="evenodd" d="M501.817 37.1901C471.588 58.0707 449.153 72.0738 417.428 88.8748C410.438 92.5777 403.631 96.6803 398.35 101.252C385.486 112.383 410.346 128.559 412.78 128.725C415.214 128.904 439.807 123.974 439.807 123.974C449.411 114.915 504.765 60.7261 513.96 61.6587L501.817 37.1901Z" fill="#FFC5B0"/>
<path fill-rule="evenodd" clip-rule="evenodd" d="M428.087 126.249C434.204 125.095 439.803 123.974 439.803 123.974C441.892 122.003 446.154 117.887 451.638 112.673C430.682 105.74 426.011 89.2147 426.011 89.2147C426.011 89.2147 405.119 107.996 401.468 111.823L428.092 126.249H428.087Z" fill="#FFA89E"/>
<path fill-rule="evenodd" clip-rule="evenodd" d="M428.289 79.4244C428.289 79.4244 424.463 82.9022 426.553 92.8165C428.638 102.731 440.285 121.163 455.932 120.12C455.932 120.12 455.932 122.467 454.279 124.121C452.63 125.775 445.24 131.183 445.24 131.183C445.24 131.183 448.281 141.772 435.068 149.426C421.855 157.076 390.91 173.601 385.004 178.296C379.093 182.991 376.484 189.253 370.923 192.033C365.356 194.817 360.144 196.553 356.318 202.292C352.493 208.03 318.893 247.2 318.893 247.2C318.893 247.2 273.977 213.051 289.33 174.106C289.33 174.106 314.071 164.38 326.241 157.25C353.512 141.267 384.549 86.8349 411.599 89.2514C411.599 89.2514 424.675 77.6603 428.284 79.4244H428.289Z" fill="#2B62E1"/>
<path fill-rule="evenodd" clip-rule="evenodd" d="M63.3551 127.287C63.3551 127.287 67.3966 127.328 71.0064 130.149C74.6116 132.979 86.9566 149.399 86.9566 149.399C86.9566 149.399 87.3561 150.152 87.301 151.328C87.2459 152.5 85.7395 153.653 84.9312 153.823C84.1229 154.002 77.8035 152.872 77.5831 152.693C77.3672 152.518 53.5683 138.281 53.5683 138.281C53.5683 138.281 56.0712 127.516 63.3505 127.282L63.3551 127.287Z" fill="#4C466A"/>
<path fill-rule="evenodd" clip-rule="evenodd" d="M118.884 110.881C118.884 110.881 108.905 115.549 101.951 117.901C94.9983 120.249 64.4849 127.466 55.883 131.899C47.2764 136.333 61.1828 147.896 62.6663 148.852C64.1405 149.808 71.7918 153.198 75.4429 153.717C79.094 154.241 84.2194 154.328 84.2194 154.328C84.2194 154.328 82.4834 151.457 90.2174 147.373C97.9559 143.284 109.603 136.503 112.992 134.936C116.386 133.37 121.746 133.085 121.746 133.085L118.889 110.876L118.884 110.881Z" fill="#FFC5B0"/>
<path fill-rule="evenodd" clip-rule="evenodd" d="M61.0037 129.763C58.9141 130.516 57.1551 131.238 55.883 131.895C47.2764 136.328 61.1828 147.892 62.6663 148.847C64.1405 149.803 71.7918 153.193 75.4429 153.713C79.094 154.236 84.2194 154.324 84.2194 154.324C84.2194 154.324 83.3009 152.803 85.7809 150.405C81.1378 148.328 71.8836 143.964 66.2026 139.732C58.4135 133.935 60.9808 129.8 61.0083 129.758L61.0037 129.763Z" fill="#FFA89E"/>
<path fill-rule="evenodd" clip-rule="evenodd" d="M157.563 190.342C157.563 190.342 148.41 187.595 134.504 184.462C120.598 181.328 63.052 156.29 55.9243 153.85C48.7966 151.42 26.3708 159.938 21.8517 165.855C17.3325 171.763 27.2388 190.195 34.5411 197.504C41.8433 204.809 58.8819 211.42 74.529 220.287C90.176 229.158 123.89 256.388 123.89 256.388L157.563 190.342Z" fill="#2B62E1"/>
<path d="M288.439 469.867H170.524V503H288.439V469.867Z" fill="#262626"/>
<path fill-rule="evenodd" clip-rule="evenodd" d="M260.626 462.3C260.626 462.3 260.796 460.986 262.711 460.118C264.627 459.249 284.136 456.029 284.136 456.029C284.136 456.029 287.13 456.024 290.827 456.543C294.52 457.067 306.911 458.542 306.911 458.542C306.911 458.542 307.646 458.675 308.996 458.11C310.346 457.54 325.511 452.758 325.511 452.758C325.511 452.758 328.381 452.064 330.204 452.239C332.028 452.413 351.239 453.543 362.192 466.761C373.145 479.978 367.676 500.032 355.891 500.032C331.559 500.032 276.269 500.032 274.62 500.032C272.971 500.032 274.142 497.762 275.488 496.504C276.838 495.24 280.747 489.635 279.617 482.68C278.487 475.72 273.008 475.894 271.01 475.026C269.008 474.158 265.201 462.125 260.626 462.3Z" fill="#2B62E1"/>
<path fill-rule="evenodd" clip-rule="evenodd" d="M284.136 456.029C284.136 456.029 286.441 455.073 288.614 455.161C290.786 455.248 304.348 456.442 304.348 456.442C304.348 456.442 320.395 451.311 327.38 448.729C334.365 446.147 343.927 447.194 349.718 449.161C355.51 451.131 365.623 457.596 371.276 464.381C376.925 471.167 380.223 500.037 355.891 500.037C367.676 500.037 373.145 479.983 362.192 466.766C351.239 453.548 332.032 452.418 330.204 452.243C328.381 452.069 325.511 452.762 325.511 452.762C325.511 452.762 310.341 457.545 308.996 458.115C307.65 458.68 306.911 458.547 306.911 458.547C306.911 458.547 294.52 457.067 290.827 456.548C287.13 456.029 284.136 456.034 284.136 456.034V456.029Z" fill="#F2F2F2"/>
<path fill-rule="evenodd" clip-rule="evenodd" d="M265.168 474.723C265.168 474.723 262.978 475.306 262.643 477.645C262.303 479.983 264.163 488.372 264.897 492.746C265.632 497.119 266.817 498.64 268.847 498.438C270.877 498.236 334.82 490.917 339.445 490.306C344.07 489.695 346.669 487.155 346.444 485.321C346.219 483.493 343.394 473.937 343.394 473.937C343.394 473.937 342.944 469.058 334.14 469.972C325.332 470.887 265.168 474.723 265.168 474.723Z" fill="#262626"/>
<path fill-rule="evenodd" clip-rule="evenodd" d="M342.352 481.972L338.572 481.568C340.276 482.119 342.352 481.972 342.352 481.972ZM338.903 489.952L334.737 488.928C335.858 489.052 338.903 489.952 338.903 489.952ZM333.148 496.816L330.42 496.348C331.858 496.472 333.148 496.816 333.148 496.816ZM257.88 497.574L273.008 497.813C269.068 497.446 257.88 497.574 257.88 497.574ZM342.357 481.972C342.357 481.972 340.276 482.119 338.577 481.568L342.357 481.972ZM338.908 489.952C338.908 489.952 335.858 489.052 334.742 488.928L338.908 489.952ZM333.153 496.816C333.153 496.816 331.867 496.467 330.425 496.348L333.153 496.816ZM257.885 497.574C257.885 497.574 269.072 497.441 273.013 497.813L257.885 497.574ZM259.887 470.583L277.013 472.178C272.916 472.242 260.323 470.583 260.323 470.583H259.887Z" fill="#ED8E86"/>
<path fill-rule="evenodd" clip-rule="evenodd" d="M153.494 390.7L151.111 397.425C151.111 397.425 146.22 396.203 144.589 400.687C144.589 400.687 86.3641 387.86 56.5397 381.75C26.7152 375.635 -0.730224 394.559 0.0137801 419.468C0.757784 444.383 14.0121 463.614 48.9343 472.182C71.9984 477.842 142.67 491.446 188.017 500.032H232.405C235.477 489.493 240.042 467.597 233.874 454.329C233.874 454.329 232.749 452.39 230.104 451.573C227.454 450.759 223.385 445.981 223.385 445.981L217.649 401.569C173.964 401.569 153.499 390.709 153.499 390.709V390.695L153.494 390.7Z" fill="#262626"/>
<path fill-rule="evenodd" clip-rule="evenodd" d="M58.2435 474.332C87.324 480.787 147.685 492.392 188.017 500.032H232.4C233.548 496.095 234.903 490.564 235.831 484.499C225.998 471.861 217.47 460.848 217.47 460.848L175.805 482.459L96.7205 457.761L78.2398 459.121L58.239 474.337L58.2435 474.332Z" fill="#4C466A"/>
<path fill-rule="evenodd" clip-rule="evenodd" d="M211.522 455.528L184.417 464.367C184.417 464.367 181.119 465.383 178.382 464.299C175.645 463.214 173.068 462.043 173.068 462.043C173.068 462.043 162.693 461.165 158.004 467.253C153.311 473.34 147.744 500.055 147.744 500.055H179.966V500.037C182.511 500.018 184.394 499.968 185.22 499.862C187.728 499.522 213.001 495.433 213.001 495.433L211.527 455.533L211.522 455.528Z" fill="#FFA89E"/>
<path fill-rule="evenodd" clip-rule="evenodd" d="M188.6 463.003L184.417 464.363C184.417 464.363 181.119 465.378 178.382 464.294C175.645 463.21 173.068 462.038 173.068 462.038C173.068 462.038 162.693 461.161 158.004 467.248C153.311 473.335 147.744 500.051 147.744 500.051H179.966V500.032C182.511 500.014 184.394 499.963 185.22 499.858C186.01 499.752 189.073 499.27 192.894 498.659C182.878 478.343 188.605 463.003 188.605 463.003H188.6Z" fill="white"/>
<path fill-rule="evenodd" clip-rule="evenodd" d="M281.527 390.851L283.525 396.502C283.525 396.502 288.416 395.275 290.047 399.764C290.047 399.764 348.924 387.856 378.753 381.745C408.582 375.635 436.018 394.559 435.279 419.464C434.535 444.378 421.276 463.609 386.354 472.178C363.294 477.838 292.623 491.441 247.271 500.028H202.888C199.816 489.489 195.25 467.593 201.414 454.325C201.414 454.325 202.539 452.386 205.184 451.568C207.834 450.755 217.639 447.741 217.639 447.741V401.565C258.422 401.565 278.969 392.101 281.518 390.847L281.527 390.851Z" fill="#262626"/>
<path fill-rule="evenodd" clip-rule="evenodd" d="M173.642 462.3C173.642 462.3 173.472 460.986 171.557 460.118C169.642 459.25 150.128 456.029 150.128 456.029C150.128 456.029 146.872 455.413 143.179 455.937C139.487 456.456 127.62 457.283 127.62 457.283C127.62 457.283 126.88 457.412 125.535 456.847C124.189 456.282 108.588 451.54 108.588 451.54C108.588 451.54 105.717 450.847 103.894 451.021C102.071 451.196 81.3812 452.501 70.4278 465.714C59.4744 478.931 66.5975 500.028 78.3776 500.028C102.709 500.028 158.004 500.028 159.653 500.028C161.302 500.028 160.131 497.758 158.781 496.499C157.435 495.236 153.522 489.631 154.656 482.675C155.782 475.715 161.261 475.89 163.258 475.021C165.261 474.153 169.073 462.121 173.642 462.296V462.3Z" fill="#2B62E1"/>
<path fill-rule="evenodd" clip-rule="evenodd" d="M150.133 456.029C150.133 456.029 147.827 455.073 145.655 455.161C143.483 455.248 129.921 456.442 129.921 456.442C129.921 456.442 113.874 451.311 106.889 448.729C99.8986 446.147 90.3414 447.194 84.5501 449.161C78.7588 451.131 68.6412 457.596 62.9923 464.377C57.3434 471.162 54.0459 500.032 78.373 500.032C66.5929 500.032 61.1277 479.978 72.0765 466.761C83.0299 453.543 102.241 452.413 104.064 452.239C105.887 452.064 108.758 452.758 108.758 452.758C108.758 452.758 123.927 457.54 125.273 458.11C126.623 458.675 127.358 458.542 127.358 458.542C127.358 458.542 139.749 457.063 143.441 456.543C147.138 456.024 150.133 456.029 150.133 456.029Z" fill="#F2F2F2"/>
<path fill-rule="evenodd" clip-rule="evenodd" d="M169.1 474.723C169.1 474.723 171.291 475.306 171.626 477.645C171.966 479.983 170.101 488.372 169.367 492.746C168.632 497.12 167.447 498.64 165.417 498.438C163.387 498.236 99.4485 490.917 94.8192 490.306C90.1944 489.695 87.5996 487.155 87.8246 485.322C88.0497 483.493 90.8695 473.937 90.8695 473.937C90.8695 473.937 91.3196 469.058 100.124 469.972C108.928 470.887 169.096 474.723 169.096 474.723H169.1Z" fill="#262626"/>
<path d="M202.897 500.896C202.975 500.896 203.058 500.882 203.141 500.859C203.595 500.726 203.857 500.248 203.724 499.793C199.535 485.427 196.936 466.035 202.208 454.692C202.208 454.692 203.223 453.084 205.451 452.4C205.818 452.285 209.299 451.311 215.008 449.717C215.035 449.707 215.063 449.703 215.095 449.689C241.618 442.292 315.784 421.701 350.173 412.154C350.187 412.154 350.201 412.15 350.214 412.141C360.92 409.168 367.763 407.271 368.089 407.184C368.544 407.055 368.815 406.582 368.686 406.122C368.557 405.663 368.089 405.387 367.625 405.52C366.504 405.833 361.035 407.353 352.74 409.651L359.165 402.92C359.492 402.576 359.482 402.029 359.133 401.703C358.793 401.372 358.247 401.39 357.921 401.73L349.503 410.551C315.003 420.125 241.503 440.533 214.838 447.971L72.5312 403.044L68.5172 398.455C68.2003 398.096 67.6584 398.059 67.3048 398.372C66.9466 398.684 66.9098 399.231 67.2221 399.585L69.3715 402.038L58.0828 398.478C57.6327 398.335 57.1505 398.588 57.0035 399.038C56.8612 399.493 57.1138 399.975 57.5638 400.118L211.802 448.811C207.71 449.951 205.258 450.645 204.945 450.736C202.011 451.646 200.734 453.792 200.679 453.884C193.753 468.769 199.995 493.146 202.07 500.262C202.181 500.639 202.525 500.882 202.897 500.882V500.896Z" fill="#2B62E1"/>
<path fill-rule="evenodd" clip-rule="evenodd" d="M249.613 187.122C249.613 187.122 224.487 197.987 227.968 234.501C231.44 271.025 279.079 318.672 274.211 381.975C269.343 445.279 324.969 402.02 324.969 402.02C324.969 402.02 326.494 394.453 340.602 389.519C340.602 389.519 346.706 370.329 343.578 353.284C340.446 336.24 326.54 317.808 322.02 292.067C317.501 266.33 318.888 247.2 318.888 247.2C318.888 247.2 284.108 205.062 289.326 174.106L249.609 187.122H249.613Z" fill="#2B62E1"/>
<path fill-rule="evenodd" clip-rule="evenodd" d="M196.022 189.198C196.022 189.198 185.555 193.645 177.036 193.645C168.517 193.645 157.563 190.337 157.563 190.337C157.563 190.337 133.223 215.555 126.618 243.727C120.014 271.898 118.972 292.77 110.627 312.249C102.282 331.724 89.0692 346.682 87.3332 354.332C85.5926 361.986 92.5458 376.591 92.5458 376.591C92.5458 376.591 89.1519 385.375 92.1508 388.457C95.1544 391.545 120.363 397.807 130.789 406.848C141.223 415.894 154.261 385.637 154.261 385.637C154.261 385.637 159.419 331.149 158.781 333.984C158.142 336.819 177.555 303.378 181.381 264.07C185.206 224.771 199.811 212.247 199.811 212.247L196.022 189.193V189.198Z" fill="#2B62E1"/>
<path fill-rule="evenodd" clip-rule="evenodd" d="M224.014 115.314C211.008 114.239 199.485 124.007 198.41 137.017L194.851 180.175C193.776 193.186 203.54 204.713 216.546 205.788C229.553 206.858 241.071 197.096 242.146 184.085L245.71 140.927C246.78 127.916 237.02 116.389 224.009 115.319L224.014 115.314Z" fill="#F8A8A0"/>
<path fill-rule="evenodd" clip-rule="evenodd" d="M242.421 180.763C242.421 180.763 252.534 189.005 253.173 191.481C253.816 193.953 249.765 230.298 249.765 230.298C249.765 230.298 248.8 231.722 247.335 231.162C245.866 230.606 216.546 205.788 216.546 205.788L242.077 185.757L242.421 180.763Z" fill="#2B62E1"/>
<path fill-rule="evenodd" clip-rule="evenodd" d="M254.895 121.158C254.895 121.158 258.482 115.737 261.504 115.512C264.521 115.287 269.293 121.029 269.688 125.913C270.083 130.801 267.276 148.471 256.424 143.771C245.572 139.071 254.89 121.158 254.89 121.158H254.895Z" fill="#FFC5B0"/>
<path fill-rule="evenodd" clip-rule="evenodd" d="M260.158 127.7C260.02 128.086 260.02 128.67 260.158 128.996C260.282 129.29 260.479 129.281 260.617 128.996C260.617 128.996 263.157 143.371 264.048 140.688C264.939 138.005 265.894 135.391 266.036 131.477C266.179 127.562 264.241 124.677 264.755 123.496C265.247 122.366 265.977 123.621 266.046 123.735V123.745C266.633 124.856 266.978 126.271 266.978 126.281C267.084 126.689 267.304 126.777 267.469 126.474C267.635 126.17 267.69 125.591 267.584 125.183C267.584 125.169 266.28 119.826 264.255 120.708C262.321 121.558 260.158 127.682 260.149 127.7H260.158Z" fill="#F0917E"/>
<path fill-rule="evenodd" clip-rule="evenodd" d="M179.874 134.247C179.874 134.247 174.689 130.324 171.768 131.118C168.843 131.913 166.253 138.91 167.497 143.651C168.746 148.393 177.261 164.132 185.937 156.088C194.612 148.048 179.874 134.252 179.874 134.252V134.247Z" fill="#FFC5B0"/>
<path fill-rule="evenodd" clip-rule="evenodd" d="M184.536 138.997C184.931 139.273 185.124 139.815 184.968 140.219C184.83 140.582 184.453 140.706 184.09 140.527C184.09 140.527 184.012 155.794 181.418 153.864C178.827 151.935 176.131 150.111 174.561 146.513C172.986 142.921 175.732 138.892 174.354 138.124C173.041 137.389 172.062 139.062 171.975 139.222V139.232C171.222 140.67 171.034 142.241 171.029 142.25C170.969 142.7 170.579 142.935 170.161 142.76C169.739 142.585 169.449 142.08 169.509 141.625C169.509 141.607 170.23 135.694 174.386 135.166C178.359 134.656 184.522 138.984 184.545 138.993L184.536 138.997Z" fill="#F0917E"/>
<path fill-rule="evenodd" clip-rule="evenodd" d="M209.538 69.1748C262.808 60.8593 262.068 103.581 263.079 137.748C263.501 152.128 257.159 161.748 257.159 161.748C257.159 161.748 244.428 177.465 239.725 181.103C236.924 183.272 233.195 184.696 229.383 185.344C225.576 186.001 221.58 185.9 218.218 184.779C212.574 182.904 195.347 172.314 195.347 172.314C195.347 172.314 186.171 165.35 181.794 151.645C171.406 119.082 156.521 79.0339 209.534 69.1748H209.538Z" fill="#FFC5B0"/>
<path fill-rule="evenodd" clip-rule="evenodd" d="M185.588 108.497C185.588 108.497 196.463 115.062 217.644 106.875C238.825 98.6879 244.286 93.0095 251.023 92.5317C257.765 92.0539 249.48 84.7491 246.573 83.9957C243.666 83.2422 182.736 102.607 182.736 102.607L185.583 108.497H185.588Z" fill="#FFA89E"/>
<path fill-rule="evenodd" clip-rule="evenodd" d="M189.514 92.2147C189.018 92.7109 188.545 93.2162 188.1 93.7308C188.798 98.642 189.753 105.391 189.997 107.366C190.401 110.578 187.65 114.106 187.65 114.106C187.65 114.106 185.712 116.495 184.224 118.774C182.736 121.048 182.974 124.457 182.984 124.585C183.204 125.945 183.457 127.337 183.737 128.78C185.418 137.394 178.414 141.584 178.414 141.584C178.414 141.584 175.782 131.725 174.239 131.284C170.703 108.901 163.006 92.9773 183.025 77.8441C199.632 65.2881 217.589 62.2146 237.42 68.5408C261.329 76.1672 259.35 93.7446 263.451 116.026C262.142 116.959 262.932 127.135 262.932 127.135C262.932 127.135 259.827 124.461 258.55 115.778C258.339 114.322 258.11 112.925 257.871 111.575C257.834 111.451 256.92 108.152 254.766 106.498C252.612 104.849 249.985 103.236 249.985 103.236C249.985 103.236 246.224 100.82 245.54 97.6634C245.122 95.7201 243.776 89.0309 242.807 84.1703C242.21 83.8303 241.604 83.5087 240.965 83.2101C224.868 75.5699 202.158 79.6634 189.514 92.2239V92.2147Z" fill="#262626"/>
<path fill-rule="evenodd" clip-rule="evenodd" d="M180.127 106.112C144.543 98.1091 168.503 49.2131 171.663 64.9803C171.718 65.233 171.718 66.0232 171.81 65.7705C178.607 47.3478 207.559 41.481 217.883 26.8485C221.58 21.6157 231.238 31.089 233.006 40.3141C247.386 26.968 267.924 31.2543 261.214 58.9436C261.214 58.9436 264.87 54.6526 268.122 56.4259C271.373 58.1901 274.45 73.0845 265.609 82.4566C256.769 91.8288 251.91 93.3908 251.91 93.3908C251.91 93.3908 248.961 89.6741 243.556 90.7124C238.155 91.7507 208.514 111.786 180.122 106.112H180.127Z" fill="#262626"/>
<path fill-rule="evenodd" clip-rule="evenodd" d="M161.261 77.3249C163.033 65.7246 170.055 56.9359 171.663 64.9803C171.718 65.233 171.718 66.0232 171.81 65.7705C178.607 47.3478 207.559 41.481 217.883 26.8485C219.013 25.2497 220.698 25.0246 222.549 25.7459C222.641 25.8607 231.596 37.3003 221.231 52.1211C221.231 52.1211 220.877 53.1457 221.754 53.0859C222.636 53.0262 229.548 49.6587 233.002 40.3141C247.381 26.9679 267.919 31.2543 261.21 58.9435C261.21 58.9435 264.865 54.6525 268.117 56.4259C268.572 56.674 269.022 57.1794 269.44 57.8869C276.475 78.8502 222.448 85.4153 222.448 85.4153C223.706 82.3234 225.07 74.2881 224.45 73.0661C223.83 71.8486 222.843 72.7721 222.843 72.7721C222.843 72.7721 199.636 97.3005 178.772 95.5179C160.149 93.9237 160.879 80.2422 161.251 77.3249H161.261Z" fill="#262626"/>
<path fill-rule="evenodd" clip-rule="evenodd" d="M251.019 33.1241C257.678 33.896 262.716 39.1931 262.519 49.6357C230.834 83.9589 192.977 56.8026 192.977 56.8026C226.049 70.6036 243.941 46.5622 251.019 33.1241Z" fill="#262626"/>
<path fill-rule="evenodd" clip-rule="evenodd" d="M195.126 176.858C189.859 181.016 182.492 185.716 181.923 191.927C180.917 202.976 179.76 224.518 179.76 224.518C179.76 224.518 180.476 226.076 182.015 225.763C183.553 225.455 216.546 205.783 216.546 205.783L194.644 181.838L195.126 176.854V176.858Z" fill="#2B62E1"/>
<path fill-rule="evenodd" clip-rule="evenodd" d="M183.452 95.5684L151.997 101.821C151.997 101.821 146.261 100.953 143.046 102.083C139.831 103.213 123.229 109.213 119.142 110.775C115.054 112.342 112.014 116.775 112.707 122.426C113.405 128.077 119.922 134.252 127.312 134.252C127.312 134.252 129.484 137.555 131.22 138.166C132.961 138.777 137.218 137.647 137.218 137.647C137.218 137.647 148.695 140.863 152.778 141.386C156.865 141.91 158.601 136.604 158.427 133.824C158.252 131.045 156.08 128.343 156.08 128.343C156.08 128.343 160.255 126.345 160.167 121.994C160.08 117.648 158.082 113.559 158.082 113.559C158.082 113.559 172.793 108.106 179.824 105.487C187.452 102.643 189.767 94.5714 183.447 95.5684H183.452Z" fill="#FFC5B0"/>
<path d="M146.679 139.356C144.295 137.422 143.882 135.193 144.116 133.567C143.097 133.742 141.737 133.778 140.543 133.195C140.447 133.654 140.295 134.109 140.07 134.527C139.106 136.324 137.99 138.042 137.944 138.115C137.682 138.52 137.149 138.625 136.754 138.363C136.355 138.102 136.24 137.573 136.502 137.174C136.516 137.16 137.627 135.441 138.555 133.714C139.211 132.497 138.94 130.475 138.78 129.8L135.565 116.495C135.455 116.031 135.739 115.567 136.199 115.457C136.653 115.346 137.126 115.631 137.241 116.095L140.456 129.4C140.47 129.46 140.644 130.218 140.686 131.215C142.192 132.662 145.049 131.55 145.095 131.536C146.247 131.095 149.352 129.487 149.908 127.36C149.908 127.356 149.912 127.342 149.917 127.337C150.459 125.16 147.552 117.846 146.155 114.327C145.742 113.284 145.398 112.42 145.196 111.85C145.035 111.405 145.274 110.909 145.719 110.752C146.169 110.596 146.656 110.826 146.817 111.276C147.014 111.832 147.349 112.673 147.754 113.693C149.706 118.599 151.575 123.561 151.69 126.464C155.019 125.918 156.65 127.682 156.728 127.769C157.045 128.118 157.012 128.651 156.673 128.973C156.328 129.29 155.791 129.276 155.46 128.936C155.405 128.876 154.165 127.613 151.428 128.275C150.413 130.935 147.106 132.552 146.05 133.011C145.765 133.746 145.219 135.947 147.777 138.023C148.144 138.327 148.199 138.864 147.901 139.236C147.731 139.443 147.478 139.553 147.23 139.553C147.037 139.553 146.849 139.489 146.688 139.36L146.679 139.356ZM126.522 134.601C126.467 134.472 125.222 131.573 127.197 129.34L124.974 121.981C124.836 121.526 125.094 121.043 125.548 120.91C125.998 120.758 126.485 121.025 126.623 121.484L130.049 132.832C130.187 133.287 129.93 133.769 129.475 133.907C129.025 134.04 128.538 133.788 128.4 133.333L127.891 131.647C127.62 132.772 128.07 133.852 128.097 133.912C128.286 134.348 128.083 134.853 127.652 135.046C127.537 135.092 127.422 135.12 127.307 135.12C126.977 135.12 126.664 134.927 126.522 134.605V134.601ZM157.288 113.89L153.586 104.987C153.343 104.339 152.558 102.855 151.786 102.662C151.327 102.547 151.047 102.074 151.161 101.614C151.281 101.16 151.74 100.889 152.208 100.994C154.069 101.463 155.093 104.095 155.189 104.362L158.882 113.233C159.065 113.674 158.854 114.175 158.418 114.359C158.312 114.405 158.197 114.423 158.087 114.423C157.752 114.423 157.43 114.226 157.293 113.89H157.288Z" fill="#ED8E86"/>
<path fill-rule="evenodd" clip-rule="evenodd" d="M566.449 0.863662C566.449 0.863662 531.797 14.5498 526.952 16.1072C522.112 17.6692 520.362 20.2971 518.111 22.3048C515.861 24.3078 501.817 37.1854 501.817 37.1854C501.817 37.1854 498.065 42.1793 500.214 49.9159C502.363 57.6525 508.416 60.9236 512.164 60.7122C512.164 60.7122 519.971 65.9634 527.062 60.0461C527.062 60.0461 530.337 61.994 532.753 61.3416C535.168 60.6939 538.163 59.7153 539.49 59.0675C540.817 58.4197 541.345 57.138 541.635 56.3661C541.635 56.3661 544.914 54.703 544.303 51.285C544.303 51.285 546.338 49.1441 546.351 47.5315C546.37 45.9235 545.13 42.9649 545.13 42.9649C545.13 42.9649 549.649 39.5652 548.285 36.3814C546.925 33.1976 540.064 25.8055 540.064 25.8055C540.064 25.8055 562.834 12.2986 567.657 8.9081C572.483 5.51758 572.065 -1.45641 566.439 0.854474L566.449 0.863662Z" fill="#FFC5B0"/>
<path d="M511.31 60.818C511.255 60.3448 511.594 59.9175 512.063 59.8624C512.127 59.8532 517.592 59.1779 521.611 55.4933C519.122 55.135 517.308 54.8685 517.073 54.8317C516.6 54.7628 516.279 54.3264 516.348 53.8532C516.417 53.3846 516.858 53.0584 517.326 53.1273C517.514 53.1549 536.234 55.8976 538.397 56.1043C540.193 56.2651 541.093 55.6955 541.143 55.6633C541.529 55.3876 542.057 55.4795 542.333 55.8654C542.613 56.2514 542.526 56.7889 542.14 57.0691C541.998 57.1702 540.693 58.0661 538.227 57.8226C537.024 57.7077 531.058 56.8578 525.763 56.0951C526.341 58.3831 527.494 59.2973 527.572 59.357C527.953 59.6373 528.036 60.1702 527.76 60.5561C527.48 60.942 526.948 61.0293 526.557 60.7491C526.47 60.6893 524.596 59.2973 523.944 55.8333C523.875 55.8241 523.806 55.8149 523.737 55.8011C519.25 60.7215 512.55 61.5347 512.26 61.5714C512.228 61.5714 512.196 61.5714 512.159 61.5714C511.728 61.5714 511.356 61.2498 511.305 60.8088L511.31 60.818ZM543.449 51.3677C543.44 51.2529 543.173 49.0293 539.733 47.4075C539.678 47.3891 539.632 47.3662 539.586 47.3386C538.861 47.0078 537.997 46.7046 536.964 46.4519C530.172 44.7796 525.607 43.4657 525.561 43.4565C525.331 43.3876 525.143 43.236 525.037 43.0247C524.927 42.8133 524.908 42.5698 524.987 42.3447C525.019 42.2391 528.5 31.994 523.554 26.1594C523.246 25.7964 523.292 25.2497 523.655 24.9465C524.017 24.6387 524.564 24.6892 524.872 25.0476C527.333 27.9557 527.995 31.6862 527.949 34.9894L532.647 36.4825C533.51 35.481 535.752 33.2758 539.182 32.5683C539.651 32.4672 540.105 32.7704 540.202 33.2344C540.298 33.703 539.995 34.1579 539.531 34.2498C535.807 35.017 533.662 37.9481 533.644 37.9756C533.423 38.2789 533.033 38.4075 532.684 38.2972L527.857 36.7628C527.655 39.0507 527.186 40.9757 526.879 42.0369C528.495 42.4871 532.307 43.53 537.373 44.7796C538.337 45.0185 539.178 45.2988 539.917 45.6066L544.634 42.2712C545.024 41.9956 545.561 42.092 545.832 42.4734C546.108 42.8639 546.016 43.406 545.626 43.677L541.644 46.4933C544.918 48.5239 545.148 51.0875 545.157 51.2299C545.189 51.7031 544.84 52.1028 544.372 52.1441C544.349 52.1441 544.321 52.1441 544.298 52.1441C543.858 52.1441 543.486 51.8088 543.44 51.3631L543.449 51.3677ZM539.458 26.4166C539.458 26.4166 537.667 24.7168 532.592 25.4519C532.128 25.5208 531.687 25.1946 531.618 24.726C531.549 24.2528 531.875 23.8163 532.348 23.7474C538.301 22.8883 540.473 24.9879 540.702 25.2313C541.024 25.5713 541.006 26.1042 540.666 26.4304C540.5 26.5912 540.285 26.6739 540.069 26.6739C539.853 26.6739 539.623 26.5912 539.453 26.4212L539.458 26.4166Z" fill="#ED8E86"/>
<path fill-rule="evenodd" clip-rule="evenodd" d="M35.8959 198.759C25.2961 190.232 12.074 169.898 13.3783 160.507C14.678 151.112 23.2846 147.809 26.6785 144.942C30.0679 142.075 37.2783 133.549 41.1958 131.637C45.1041 129.726 52.9299 130.245 52.9299 130.245C52.9299 130.245 54.1424 129.639 57.6236 127.985C61.1002 126.331 63.3551 127.291 63.3551 127.291C60.1403 128.072 56.2274 134.16 61.3574 139.723C66.4873 145.291 81.3077 151.939 83.999 152.422C86.6948 152.899 87.301 151.333 87.301 151.333C87.5628 152.334 86.7821 153.593 86.7821 153.593L81 159.772C82.7819 161.899 81.6613 164.376 81.6613 164.376C81.6613 164.376 76.7426 170.596 72.398 171.639C72.398 171.639 74.4831 180.685 71.6999 188.334C68.9214 195.988 35.8959 198.763 35.8959 198.763V198.759Z" fill="#2B62E1"/>
<path fill-rule="evenodd" clip-rule="evenodd" d="M240.088 161.029C240.584 160.804 240.809 160.221 240.589 159.725C240.364 159.229 239.781 159.003 239.285 159.224C239.275 159.224 236.635 160.363 232.983 160.768C232.446 160.827 232.051 161.314 232.115 161.856C232.175 162.399 232.662 162.789 233.204 162.725C237.144 162.288 240.084 161.025 240.093 161.025L240.088 161.029Z" fill="#ED8E86"/>
<path fill-rule="evenodd" clip-rule="evenodd" d="M206.64 126.722C203.563 127.392 201.597 130.457 202.273 133.535L203.49 139.098C204.16 142.176 207.228 144.138 210.305 143.467C213.378 142.792 215.339 139.732 214.663 136.65L213.446 131.086C212.776 128.008 209.708 126.046 206.64 126.722Z" fill="#262626"/>
<path fill-rule="evenodd" clip-rule="evenodd" d="M212.482 121.278C212.482 121.278 213.975 121.645 215.362 121.117C216.758 120.593 217.929 118.613 217.869 118.153C217.809 117.689 217.047 118.415 214.434 117.345C211.867 116.293 202.346 113.706 195.636 119.513C194.484 120.515 195.333 121.319 196.775 120.919C198.217 120.52 204.371 117.892 212.482 121.278Z" fill="#262626"/>
<path fill-rule="evenodd" clip-rule="evenodd" d="M235.858 141.86C236.331 141.207 235.349 139.062 234.554 137.647C233.952 136.576 233.544 136.08 233.222 136.204C232.878 136.149 232.607 136.719 232.313 137.876C231.913 139.415 231.537 141.708 232.161 142.241C232.993 142.953 235.243 142.719 235.858 141.86Z" fill="#F9D4C8"/>
<path fill-rule="evenodd" clip-rule="evenodd" d="M233.718 128.895C233.475 128.412 232.873 128.219 232.396 128.467C231.909 128.716 231.716 129.308 231.964 129.795C232.786 131.403 237.503 140.555 237.484 141.469C237.429 142.075 236.492 143.077 236.06 143.467C235.326 144.134 234.426 144.685 233.452 144.938C232.924 145.071 232.602 145.613 232.74 146.137C232.873 146.66 233.411 146.982 233.939 146.849C235.225 146.523 236.414 145.815 237.388 144.933C238.21 144.184 239.349 142.797 239.45 141.648C239.565 140.362 234.701 130.659 233.714 128.895H233.718Z" fill="#ED8E86"/>
<path fill-rule="evenodd" clip-rule="evenodd" d="M246.1 153.61C246.573 153.316 246.72 152.691 246.426 152.218C246.132 151.745 245.507 151.598 245.034 151.892C244.998 151.915 232.143 159.063 223.862 154.598C222.779 153.826 221.608 155.48 222.691 156.247C233.429 162.068 246.063 153.637 246.1 153.61Z" fill="#ED8E86"/>
<path fill-rule="evenodd" clip-rule="evenodd" d="M247.983 117.749C244.906 118.42 242.94 121.484 243.615 124.562L244.832 130.126C245.507 133.204 248.571 135.166 251.648 134.495C254.72 133.82 256.686 130.76 256.011 127.677L254.794 122.114C254.123 119.036 251.055 117.069 247.983 117.745V117.749Z" fill="#262626"/>
<path fill-rule="evenodd" clip-rule="evenodd" d="M242.496 115.454C242.496 115.454 241.582 116.29 240.37 116.359C239.157 116.428 237.499 115.224 237.348 114.824C237.201 114.42 238.041 114.742 239.469 112.918C240.87 111.126 246.611 105.567 253.812 107.928C255.052 108.337 254.777 109.302 253.578 109.495C252.384 109.683 246.896 109.738 242.491 115.449L242.496 115.454Z" fill="#262626"/>
<path fill-rule="evenodd" clip-rule="evenodd" d="M144.879 426.796L214.406 448.747L214.82 448.88C217.378 448.164 220.377 447.328 223.738 446.395C241.108 441.562 268.213 434.027 294.244 426.801H220.905H217.649H144.883L144.879 426.796ZM94.0614 389.684L109.116 406.821C109.116 406.821 112.574 411.773 107.238 414.906L113.631 416.923L112.106 396.773C104.716 393.791 97.5564 391.416 94.066 389.684H94.0614ZM323.715 418.609L325.869 418.012C329.052 394.775 338.926 390.162 340.409 389.592C326.48 394.526 324.969 402.024 324.969 402.024L323.715 418.609Z" fill="#262626"/>
<path fill-rule="evenodd" clip-rule="evenodd" d="M337.819 224.941C328.363 236.16 318.893 247.2 318.893 247.2C318.893 247.2 311.347 241.457 303.498 232.007L303.875 225.267C320.445 244.292 337.383 225.437 337.824 224.941H337.819Z" fill="#2B62E1"/>
<path fill-rule="evenodd" clip-rule="evenodd" d="M93.7812 233.229C93.7812 233.229 113.029 245.895 132.166 227.812C135.689 224.486 138.357 223.485 140.364 224.077L123.89 256.393C123.89 256.393 108.565 244.016 93.7858 233.229H93.7812ZM73.142 178.53L81.6613 164.371C85.4364 165.933 89.3999 167.569 93.4046 169.204C93.4046 169.204 81.2066 164.812 73.142 178.53Z" fill="#2B62E1"/>
<path d="M134.366 389.546C104.533 387.382 92.4953 377.67 91.9947 377.257C91.6273 376.954 91.5768 376.412 91.8799 376.049C92.1876 375.681 92.7295 375.635 93.0923 375.934C93.2117 376.03 105.277 385.715 134.49 387.833C134.963 387.869 135.321 388.278 135.285 388.756C135.253 389.206 134.876 389.556 134.426 389.556C134.408 389.556 134.385 389.556 134.366 389.556V389.546ZM285.72 360.323C285.252 360.249 284.926 359.808 284.999 359.339C289.183 332.05 269.798 296.992 252.438 269.5C237.112 245.224 238.15 228.423 238.513 225.295C230.898 219.037 220.335 210.12 215.995 206.449C215.633 206.146 215.587 205.599 215.894 205.236C216.202 204.874 216.744 204.828 217.107 205.135C224.124 211.08 233.42 218.881 239.918 224.229C239.96 224.261 239.992 224.289 240.033 224.325C244.148 227.716 247.124 230.1 247.648 230.367C248.263 230.601 248.731 230.197 248.943 229.967C250.495 216.01 252.768 193.48 252.346 191.707C252.291 191.5 251.914 190.613 249.342 188.068C249.002 187.733 248.998 187.186 249.333 186.85C249.668 186.515 250.21 186.506 250.55 186.841C253.338 189.598 253.861 190.691 254.008 191.275C254.661 193.774 251.303 224.307 250.624 230.403C250.605 230.541 250.555 230.674 250.477 230.794C250.013 231.478 248.681 232.622 247.032 231.979C246.55 231.795 243.831 229.655 240.143 226.641C239.9 231.478 240.382 247.191 253.894 268.59C271.41 296.335 290.97 331.756 286.703 359.611C286.639 360.038 286.272 360.341 285.849 360.341C285.808 360.341 285.766 360.341 285.72 360.332V360.323ZM147.712 336.552C147.308 336.309 147.18 335.776 147.423 335.367C165.683 305.385 169.256 275.532 171.617 255.782L171.644 255.543C174.069 235.25 179.7 225.501 179.934 225.097C180.178 224.688 180.701 224.555 181.114 224.794C181.523 225.037 181.661 225.561 181.422 225.975C181.367 226.071 175.732 235.857 173.353 255.745L173.325 255.984C170.946 275.886 167.35 305.96 148.897 336.263C148.736 336.529 148.452 336.676 148.162 336.676C148.006 336.676 147.855 336.635 147.712 336.548V336.552ZM123.656 257.541C123.192 257.449 122.889 256.995 122.981 256.526C123.895 251.904 124.814 247.655 125.778 243.529C129.31 228.469 137.916 214.296 144.511 205.053C144.787 204.667 145.329 204.57 145.71 204.855C146.096 205.131 146.188 205.668 145.907 206.059C139.4 215.174 130.917 229.14 127.445 243.929C126.485 248.031 125.576 252.263 124.662 256.871C124.584 257.275 124.221 257.564 123.817 257.564C123.762 257.564 123.707 257.56 123.647 257.546L123.656 257.541ZM318.232 247.747C318.103 247.59 305.271 231.947 296.421 212.968C296.219 212.541 296.407 212.027 296.839 211.825C297.253 211.627 297.781 211.811 297.983 212.243C306.741 231.01 319.435 246.492 319.559 246.649C319.862 247.016 319.811 247.558 319.444 247.861C319.283 247.995 319.09 248.059 318.893 248.059C318.649 248.059 318.401 247.953 318.232 247.747ZM68.6274 186.037C68.2187 185.794 68.0901 185.261 68.3335 184.852L80.9219 163.921C81.1653 163.512 81.7026 163.383 82.1068 163.627C82.5109 163.87 82.6441 164.403 82.4007 164.808L69.8077 185.739C69.647 186.005 69.3623 186.157 69.0683 186.157C68.9168 186.157 68.7606 186.115 68.6274 186.033V186.037ZM61.9314 164.339C48.0433 159.037 43.1292 140.628 43.2992 138.428C43.5058 135.768 45.6919 134.348 45.747 134.316L52.4293 129.542C52.8151 129.267 53.3524 129.354 53.628 129.74C53.9035 130.131 53.8163 130.668 53.4259 130.944L46.7115 135.74C46.7115 135.74 45.1546 136.774 45.0168 138.556C44.8652 140.523 49.738 157.838 62.5422 162.731C74.8964 167.44 80.0585 159.639 80.2743 159.304C80.5315 158.899 81.0642 158.785 81.4592 159.037C81.8634 159.29 81.9828 159.823 81.7302 160.223C81.6843 160.296 78.0102 165.942 69.8858 165.942C67.5941 165.942 64.9488 165.492 61.9314 164.339ZM444.969 131.996C408.509 119.918 410.718 89.4811 410.741 89.1779C410.787 88.7001 411.195 88.3142 411.678 88.3923C412.151 88.4336 412.5 88.8517 412.458 89.3249C412.435 89.6189 410.327 118.705 445.511 130.365C445.961 130.512 446.209 130.999 446.058 131.454C445.938 131.817 445.603 132.046 445.24 132.046C445.153 132.046 445.061 132.033 444.969 132V131.996Z" fill="#262626"/>
<path d="M181.62 226.673C181.799 226.673 181.987 226.655 182.185 226.613C183.746 226.301 209.221 211.158 216.992 206.527C217.396 206.284 217.529 205.756 217.29 205.347C217.047 204.938 216.51 204.814 216.11 205.048C203.136 212.785 183.296 224.463 181.812 224.932C181.206 225.042 180.807 224.578 180.637 224.316C180.765 221.987 181.767 203.789 182.676 193.264C182.717 192.791 182.364 192.373 181.891 192.331C181.431 192.318 181 192.644 180.958 193.117C179.989 204.35 178.915 224.27 178.905 224.468C178.896 224.61 178.924 224.753 178.979 224.877C179.287 225.543 180.2 226.668 181.62 226.668V226.673Z" fill="#262626"/>
<path fill-rule="evenodd" clip-rule="evenodd" d="M108.571 312C182.085 312 255.599 312 329.117 312C330.638 312 331.79 313.245 331.676 314.77L323.413 424.006C323.294 425.532 321.958 426.781 320.433 426.781C252.706 426.781 184.978 426.781 117.251 426.781C115.731 426.781 114.39 425.532 114.27 424.006L106.008 314.77C105.893 313.245 107.046 312 108.571 312Z" fill="#717378"/>
<path fill-rule="evenodd" clip-rule="evenodd" d="M217.829 314.954H149.973H143.213H108.571C108.194 314.954 107.845 315.027 107.533 315.165C106.885 315.446 106.389 315.974 106.15 316.64L106.008 314.77C105.921 313.626 106.555 312.634 107.524 312.216C107.84 312.078 108.194 312.005 108.571 312.005H142.979H149.463H217.645H249.647H276.114H282.962H308.547H329.122C330.642 312.005 331.795 313.25 331.68 314.775L331.538 316.645C331.189 315.657 330.256 314.959 329.122 314.959H307.798H282.695H279.15H248.062H217.834L217.829 314.954Z" fill="#525767"/>
<path fill-rule="evenodd" clip-rule="evenodd" d="M233.153 233.096C231.95 233.096 231.197 234.653 231.468 236.574C231.739 238.498 232.928 240.051 234.127 240.051C235.326 240.051 236.083 238.498 235.812 236.574C235.546 234.653 234.352 233.096 233.153 233.096Z" fill="white"/>
<path fill-rule="evenodd" clip-rule="evenodd" d="M251.877 278.56C250.697 278.776 250.229 280.434 250.835 282.281C251.441 284.123 252.888 285.447 254.073 285.231C255.258 285.019 255.717 283.352 255.111 281.509C254.504 279.667 253.058 278.344 251.877 278.56Z" fill="white"/>
<path d="M224.377 370.042C224.369 368.482 225.074 367.304 226.503 366.437C225.704 365.293 224.496 364.664 222.902 364.541C221.393 364.422 219.744 365.421 219.14 365.421C218.503 365.421 217.04 364.584 215.893 364.584C213.521 364.622 211 366.475 211 370.246C211 371.359 211.204 372.51 211.612 373.697C212.156 375.257 214.12 379.083 216.169 379.019C217.24 378.994 217.997 378.258 219.391 378.258C220.743 378.258 221.444 379.019 222.639 379.019C224.705 378.99 226.481 375.512 227 373.948C224.228 372.643 224.377 370.122 224.377 370.042ZM221.971 363.062C223.132 361.685 223.026 360.431 222.991 359.98C221.967 360.039 220.781 360.677 220.105 361.464C219.361 362.305 218.923 363.347 219.017 364.52C220.126 364.605 221.138 364.035 221.971 363.062Z" fill="#A6A8AE"/>
</g>
<defs>
<clipPath id="clip0_12_157">
<rect width="571" height="503" fill="white"/>
</clipPath>
</defs>
</svg>
