<svg width="46" height="64" viewBox="0 0 46 64" fill="none" xmlns="http://www.w3.org/2000/svg">
<g clip-path="url(#clip0_5_93)">
<path d="M0.75 11.975C0.75 5.3625 6.1125 0 12.725 0H33.275C39.8875 0 45.25 5.3625 45.25 11.975C45.25 16.1625 43.1 19.85 39.8375 21.9875C43.1 24.125 45.25 27.8125 45.25 32C45.25 38.6125 39.8875 43.975 33.275 43.975H33.0125C29.9125 43.975 27.0875 42.8 24.9625 40.8625V51.9C24.9625 58.6 19.4625 64 12.7875 64C6.1875 64 0.75 58.65 0.75 52.025C0.75 47.8375 2.9 44.15 6.15 42.0125C2.9 39.875 0.75 36.1875 0.75 32C0.75 27.8125 2.9 24.125 6.15 21.9875C2.9 19.85 0.75 16.1625 0.75 11.975ZM21.0375 23.95H12.725C8.275 23.95 4.675 27.55 4.675 32C4.675 36.425 8.25 40.025 12.675 40.05C12.6875 40.05 12.7125 40.05 12.725 40.05H21.0375V23.95ZM24.9625 32C24.9625 36.45 28.5625 40.05 33.0125 40.05H33.275C37.7125 40.05 41.325 36.45 41.325 32C41.325 27.55 37.7125 23.95 33.275 23.95H33.0125C28.5625 23.95 24.9625 27.55 24.9625 32ZM12.725 43.975C12.7125 43.975 12.6875 43.975 12.675 43.975C8.25 44 4.675 47.6 4.675 52.025C4.675 56.4625 8.325 60.075 12.7875 60.075C17.325 60.075 21.0375 56.4 21.0375 51.9V43.975H12.725ZM12.725 3.925C8.275 3.925 4.675 7.525 4.675 11.975C4.675 16.425 8.275 20.025 12.725 20.025H21.0375V3.925H12.725ZM24.9625 20.025H33.275C37.7125 20.025 41.325 16.425 41.325 11.975C41.325 7.525 37.7125 3.925 33.275 3.925H24.9625V20.025Z" fill="#2B62E1"/>
</g>
<defs>
<clipPath id="clip0_5_93">
<rect width="46" height="64" fill="white"/>
</clipPath>
</defs>
</svg>
