<svg width="60" height="53" viewBox="0 0 60 53" fill="none" xmlns="http://www.w3.org/2000/svg">
<g clip-path="url(#clip0_5_70)">
<path d="M32.1478 35.8718C32.1366 35.9682 32.1436 35.9236 32.1478 35.8718V35.8718ZM47.5058 22.4313C46.0626 23.0104 44.7723 23.9147 43.7346 25.0743C42.9672 24.3877 42.2289 23.8148 41.9316 23.2821C41.5825 22.6616 41.3331 22.3103 41.1213 21.4925C40.9096 20.6747 40.9193 19.3918 40.8803 19.3155C40.8413 19.2392 40.589 18.8807 39.6606 19.2452C38.7321 19.6098 38.0108 20.1168 38.0158 20.399C38.032 20.9119 38.0895 21.4228 38.1877 21.9266C38.3609 22.8352 37.8832 26.5213 37.5591 28.4739C36.9977 27.9888 36.5154 27.5555 36.2845 27.1466C35.9354 26.5261 35.686 26.1748 35.4742 25.357C35.2624 24.5392 35.2722 23.2563 35.2332 23.18C35.1942 23.1037 34.9419 22.7452 34.0135 23.1097C33.085 23.4743 32.3637 23.9813 32.3687 24.2635C32.3738 24.5457 32.5046 25.1619 32.5406 25.7911C32.5767 26.4204 32.3429 32.3325 32.2778 33.8718C32.2425 34.6551 32.1981 35.2915 32.1561 35.7263C32.1505 35.7955 32.1434 35.8401 32.1406 35.8747C32.1477 35.83 32.1476 35.7883 32.1534 35.8027C32.1198 36.1756 32.096 36.3858 32.096 36.3858L32.0988 36.393C32.0694 36.6724 32.0169 36.9359 31.9523 36.9618C31.9093 36.9791 31.5731 36.4119 31.3985 35.5206C31.0362 33.6431 30.7456 30.6166 30.7009 30.5259C30.6735 30.4784 30.6434 29.9471 29.8678 29.966C29.1194 29.9906 29.0417 30.4816 28.9843 30.5047C28.9268 30.5277 28.9416 30.689 28.9416 30.689C28.9416 30.689 28.4406 27.3457 26.3239 28.1957C25.0037 28.7259 23.7508 30.9177 23.3758 32.5981C22.9333 33.1353 21.9752 34.2975 20.9699 35.5288C20.5847 36.0012 20.188 36.4865 19.8142 36.9459C19.7639 36.9244 19.7207 36.8999 19.6704 36.8783C15.9974 35.16 10.4741 35.1209 9.19199 31.3473C8.72314 29.9724 7.77008 26.2505 14.6285 18.5139C20.2493 12.1772 26.2619 10.8827 28.0849 12.6418C30.7055 15.1423 28.5939 22.6027 21.6192 26.3567C18.9596 27.7842 17.0622 27.2922 16.5344 27.0361C15.9836 26.7641 15.9175 26.7655 15.8058 26.9023C15.6211 27.127 15.9221 27.4408 16.0978 27.6294C16.5414 28.1117 17.843 28.7593 19.5737 28.6495C21.0918 28.5497 24.4547 27.4834 27.7853 24.3653C31.5314 20.8713 33.066 14.7126 30.4498 11.1237C27.8005 7.47276 20.557 8.83515 15.1219 13.6427C11.8813 16.5074 8.64141 20.2662 6.80685 24.2047C4.63084 28.8905 5.21888 31.9732 5.92837 33.076C8.44908 36.9875 15.3853 37.4121 18.5383 38.52C18.4495 38.6309 18.365 38.7317 18.2877 38.8296C17.3523 39.8824 13.8476 43.9984 13.7241 46.907C13.5902 50.2043 15.8575 51.6177 16.9289 51.5052C20.2634 51.1358 22.7301 48.398 23.3888 45.2661C24.0475 42.1342 22.5515 38.9899 21.2012 37.8268C21.1853 37.8081 21.1652 37.7995 21.1493 37.7807C21.3784 37.4798 21.6147 37.1759 21.8509 36.872C22.3048 36.2801 22.7559 35.7228 23.1526 35.2375C23.1778 36.1302 23.3455 37.1496 23.7814 38.5461C24.2882 40.1817 25.7651 41.9711 26.9355 42.4374C27.4503 42.6403 27.9052 42.4659 28.185 42.3536C29.1752 41.9559 29.2905 40.9566 29.3924 39.7788C29.5224 38.3389 29.5026 36.7334 29.5026 36.7334C29.5026 36.7334 30.3372 40.762 32.1812 40.0215C32.8556 39.7506 33.1803 38.6087 33.3024 38.0414L33.3053 38.0486C33.3053 38.0486 33.3081 38.014 33.3208 37.942C33.3492 37.8052 33.3591 37.726 33.3591 37.726L33.3504 37.7044C33.4351 37.127 33.5999 35.8153 33.7857 33.6842C34.0287 30.9282 33.9932 27.6238 33.9932 27.6238C34.3528 28.2089 34.7506 28.7696 35.1839 29.3024C35.6594 29.9056 36.3834 30.4842 37.0126 31.0759C36.8903 31.5597 36.812 31.8419 36.812 31.8419C36.8147 31.8473 36.8193 31.8514 36.8249 31.8534C36.7253 32.2278 36.6057 32.6353 36.476 33.0385C35.997 34.5015 35.4094 36.1921 35.4104 36.6097C35.4088 37.1035 35.579 37.403 36.0074 37.5152C36.3265 37.6044 36.7686 37.4603 37.2061 37.2428C38.0081 36.8538 38.5084 36.4189 38.7362 36.1769C39.1778 35.7841 39.5625 35.3314 39.8791 34.8318C40.51 33.8093 40.6737 32.6401 40.1205 31.4077C39.8143 30.7282 39.3143 30.1264 38.7815 29.588C38.8141 29.4412 38.8511 29.2842 38.8809 29.1301C39.4589 26.4821 39.6403 23.7592 39.6403 23.7592C39.9999 24.3444 40.3977 24.9051 40.831 25.4379C41.2373 25.9518 41.8319 26.457 42.3919 26.9594C41.4939 28.5824 41.1746 30.1735 41.2201 31.1166C41.3049 32.8632 41.9986 33.3871 42.8442 33.2314C43.2247 33.1622 43.6605 32.7949 43.97 32.4867C44.45 32.079 44.8645 31.5996 45.1989 31.0653C45.8299 30.0428 46.3251 28.7655 45.7618 27.5288C45.5119 26.9688 45.1257 26.4635 44.6979 25.9999C45.6336 25.0724 46.9932 24.2255 48.9454 23.6923C53.1299 22.5552 54.918 24.7463 55.1865 25.8506C55.455 26.9549 54.8497 27.8751 54.6392 28.1603C54.4288 28.4454 54.3687 28.5448 54.4423 28.6657C54.5533 28.8385 54.6796 28.7794 54.899 28.6411C55.2059 28.451 56.653 26.9503 55.9543 24.9822C55.0862 22.4885 51.6587 20.7384 47.513 22.4284L47.5058 22.4313ZM20.8936 45.2149C20.1544 47.192 18.523 48.4825 17.5415 48.3416C16.4954 48.1849 15.9769 45.9187 16.987 43.7241C17.6013 42.3906 18.5316 41.0139 19.1643 40.1412C19.3118 39.9482 19.5222 39.663 19.7828 39.316C19.8257 39.2569 19.8487 39.231 19.8487 39.231C19.8959 39.1619 19.9532 39.0971 20.0076 39.0251C21.482 40.9743 21.6827 43.1341 20.9007 45.212L20.8936 45.2149ZM27.8946 34.7626C27.8892 36.0772 28.077 39.3457 27.4279 39.4308C26.8736 39.5029 25.6834 37.4312 25.5264 34.9864C25.4486 33.7553 25.6888 32.1541 25.9385 31.4687C26.3365 30.3642 27.0289 29.7852 27.3455 30.0342C27.7672 30.3581 27.8983 33.9419 27.8946 34.7626ZM37.3911 35.3795C37.2378 35.5581 37.0845 35.6949 36.9781 35.6791C36.8991 35.6691 36.9877 35.4747 36.9877 35.4747C36.9877 35.4747 37.5543 34.0015 37.7523 33.3536C37.8663 32.9734 37.9959 32.5285 38.1326 32.0389C38.147 32.0749 38.1687 32.108 38.186 32.1512C38.6963 33.4426 37.812 34.8093 37.3911 35.3795ZM42.9692 31.5093C42.7853 31.4661 42.6709 31.1192 42.7296 29.8751C42.7513 29.3899 42.9043 28.5259 43.3846 27.5639C43.5698 27.7807 43.721 28.0244 43.8331 28.2867C44.4764 29.9092 43.564 30.9778 42.9692 31.5093Z" fill="#2B62E1"/>
</g>
<defs>
<clipPath id="clip0_5_70">
<rect width="59.8039" height="53" fill="white"/>
</clipPath>
</defs>
</svg>
