<svg width="30" height="30" viewBox="0 0 30 30" fill="none" xmlns="http://www.w3.org/2000/svg">
<path d="M4.8 27.1V6.90002H24.7V27.1H4.8Z" fill="#EAF1E2" stroke="#1A6C78" stroke-width="1.5" stroke-miterlimit="10"/>
<path d="M21.8 11.1H12.8V13.3H21.8V11.1Z" fill="#1A6C78"/>
<path d="M21.8 16H8.2V18.2H21.7V16H21.8Z" fill="#1A6C78"/>
<path d="M21.8 20.9H8.2V23.1H21.7V20.9H21.8Z" fill="#1A6C78"/>
<path d="M15.1 2.90002C16 4.30002 16.5 6.10002 16.5 7.90002C16.5 12.9 12.6 16.8 7.60001 16.8C5.80001 16.8 4.00001 16.3 2.60001 15.4C4.20001 17.7 7.10001 19.3 10.1 19.3C15.1 19.3 19 15.4 19 10.4C19.1 7.30002 17.5 4.50002 15.1 2.90002Z" fill="#E2C159"/>
<path d="M16.6 7.9C16.6 12.9 12.7 16.8 7.7 16.8C5.9 16.8 4.1 16.3 2.7 15.4C1.8 14 1.3 12.4 1.3 10.4C1.3 5.4 5.2 1.5 10.2 1.5C12 1.5 13.8 2 15.2 2.9C16 4.3 16.6 6.1 16.6 7.9Z" fill="#F0D05B"/>
<path d="M9.20001 16.9C8.80001 16.9 8.70001 16.7 8.70001 16.4V15.6H6.70001C6.30001 15.6 6.20001 15.4 6.20001 15.1V13.4C6.20001 13 6.40001 12.9 6.70001 12.9H10.6C10.8 12.9 11 12.7 11 12.5C11 12.2 10.9 12 10.6 12L8.40001 11.7C7.00001 11.5 6.10001 10.9 6.10001 9.30002V7.70002C6.10001 6.20002 7.00001 5.30002 8.60001 5.20002V4.40002C8.60001 4.00002 8.80001 3.90002 9.10001 3.90002H11.2C11.6 3.90002 11.7 4.10002 11.7 4.40002V5.20002H13.1C13.5 5.20002 13.6 5.40002 13.6 5.70002V7.40002C13.6 7.80002 13.4 7.90002 13.1 7.90002H9.90001C9.70001 7.90002 9.50001 8.10002 9.50001 8.30002C9.50001 8.50002 9.60001 8.70002 9.90001 8.80002L12 9.10002C13.4 9.30002 14.3 9.90002 14.3 11.5V13C14.3 14.5 13.4 15.4 11.8 15.5V16.3C11.8 16.7 11.6 16.8 11.3 16.8H9.20001V16.9Z" fill="white"/>
</svg>
